<svg width="24" height="24" viewBox="0 0 24 24" fill="none" xmlns="http://www.w3.org/2000/svg">
<path d="M12.02 24C11.7005 24 11.421 23.8804 11.1814 23.6412L0.359401 12.8372C-0.1198 12.3588 -0.1198 11.6013 0.359401 11.1628L11.1814 0.358804C11.6606 -0.119601 12.4193 -0.119601 12.8586 0.358804C13.3378 0.837209 13.3378 1.59468 12.8586 2.03322L2.87521 12L12.8586 21.9668C13.3378 22.4452 13.3378 23.2027 12.8586 23.6412C12.619 23.8804 12.3394 24 12.02 24Z" fill="#F8F8FF"/>
<path d="M22.802 13.196H1.198C0.519135 13.196 0 12.6777 0 12C0 11.3223 0.519135 10.804 1.198 10.804H22.802C23.4809 10.804 24 11.3223 24 12C24 12.6777 23.4809 13.196 22.802 13.196Z" fill="#F8F8FF"/>
</svg>
