<svg width="24" height="24" viewBox="0 0 24 24" fill="none" xmlns="http://www.w3.org/2000/svg">
<path d="M21.9 20H2.1C1.47667 20 1 19.5244 1 18.9024V5.95122C1 5.32927 1.47667 4.85366 2.1 4.85366H7.05L7.30667 2.95122C7.38 2.40244 7.85667 2 8.40667 2H15.6667C16.2167 2 16.6933 2.40244 16.7667 2.95122L17.0233 4.85366H21.9C22.5233 4.85366 23 5.32927 23 5.95122V18.8659C23 19.4878 22.5233 20 21.9 20ZM3.2 17.8049H20.8V7.04878H15.9967C15.4467 7.04878 14.97 6.64634 14.8967 6.09756L14.6767 4.19512H9.36L9.10333 6.09756C9.03 6.64634 8.55333 7.04878 8.00333 7.04878H3.2V17.8049Z" fill="#F8F8FF"/>
<path d="M12 16.7805C9.5067 16.7805 7.45337 14.7317 7.45337 12.2439C7.45337 9.75612 9.5067 7.70734 12 7.70734C14.4934 7.70734 16.5467 9.75612 16.5467 12.2439C16.5467 14.7317 14.53 16.7805 12 16.7805ZM12 9.90246C10.7167 9.90246 9.65337 10.9634 9.65337 12.2439C9.65337 13.5244 10.7167 14.5854 12 14.5854C13.2834 14.5854 14.3467 13.5244 14.3467 12.2439C14.3467 10.9634 13.32 9.90246 12 9.90246Z" fill="#F8F8FF"/>
</svg>
