<svg width="24" height="24" viewBox="0 0 24 24" fill="none" xmlns="http://www.w3.org/2000/svg">
<path d="M12 23C5.92977 23 1 18.0702 1 12C1 5.92977 5.92977 1 12 1C18.0702 1 23 5.92977 23 12C23 18.0702 18.0702 23 12 23ZM12 3.20736C7.14381 3.20736 3.20736 7.14381 3.20736 12C3.20736 16.8562 7.14381 20.7926 12 20.7926C16.8562 20.7926 20.7926 16.8562 20.7926 12C20.7926 7.14381 16.8562 3.20736 12 3.20736Z" fill="#F8F8FF"/>
<path d="M12 16.5619C9.49831 16.5619 7.43811 14.5017 7.43811 12C7.43811 9.49831 9.49831 7.43811 12 7.43811C14.5017 7.43811 16.5619 9.49831 16.5619 12C16.5619 14.5017 14.5017 16.5619 12 16.5619ZM12 9.64547C10.7124 9.64547 9.64547 10.7124 9.64547 12C9.64547 13.2876 10.7124 14.3545 12 14.3545C13.2876 14.3545 14.3545 13.2876 14.3545 12C14.3545 10.7124 13.2876 9.64547 12 9.64547Z" fill="#F8F8FF"/>
<path d="M20.6823 9.60866H12C11.3746 9.60866 10.8963 9.1304 10.8963 8.50498C10.8963 7.87957 11.3746 7.40131 12 7.40131H20.6823C21.3077 7.40131 21.7859 7.87957 21.7859 8.50498C21.7859 9.1304 21.2709 9.60866 20.6823 9.60866Z" fill="#F8F8FF"/>
<path d="M10.602 22.5218C10.418 22.5218 10.2341 22.485 10.0501 22.3746C9.5351 22.0803 9.35115 21.3813 9.64547 20.8663L13.8762 13.5084C14.1705 12.9933 14.8695 12.8094 15.3846 13.1037C15.8996 13.398 16.0836 14.097 15.7893 14.6121L11.5585 21.9699C11.3746 22.3378 11.0067 22.5218 10.602 22.5218Z" fill="#F8F8FF"/>
<path d="M8.98326 14.8696C8.61536 14.8696 8.24747 14.6857 8.02673 14.3178L3.6856 6.81276C3.39128 6.29771 3.57523 5.59872 4.09028 5.3044C4.60533 5.01009 5.30433 5.19403 5.59864 5.70908L9.93978 13.2141C10.2341 13.7291 10.0501 14.4281 9.5351 14.7225C9.35115 14.796 9.1672 14.8696 8.98326 14.8696Z" fill="#F8F8FF"/>
</svg>
