<svg width="24" height="24" viewBox="0 0 24 24" fill="none" xmlns="http://www.w3.org/2000/svg">
<path d="M18.5781 18.1314C18.1395 18.1314 17.701 17.8386 17.5548 17.3993C17.3721 16.8136 17.6645 16.1913 18.2492 16.0083C19.7841 15.4958 20.8439 14.0316 20.8439 12.3844C20.8439 10.2978 19.1262 8.57737 17.0432 8.57737C17.0066 8.57737 16.9701 8.57737 16.9336 8.57737C16.4585 8.57737 16.0199 8.24792 15.8738 7.80865C15.0332 5.02662 12.5482 3.19634 9.66113 3.19634C6.11628 3.19634 3.19269 6.12479 3.19269 9.67554C3.19269 12.0549 4.47176 14.2512 6.59136 15.386C7.13953 15.6789 7.32226 16.3378 7.0299 16.8869C6.73754 17.4359 6.07973 17.619 5.53156 17.3261C2.71761 15.7887 1 12.8602 1 9.67554C1 4.91681 4.9103 1 9.66113 1C13.2425 1 16.3488 3.12313 17.701 6.38103C20.6977 6.74709 23 9.27288 23 12.3478C23 14.9468 21.3555 17.2163 18.907 18.0582C18.7973 18.0948 18.6877 18.1314 18.5781 18.1314Z" fill="#F8F8FF"/>
<path d="M8.74753 21.3894C8.12627 21.3894 7.65118 20.9135 7.65118 20.2912V10.5541C7.65118 9.93181 8.12627 9.45593 8.74753 9.45593C9.36879 9.45593 9.84387 9.93181 9.84387 10.5541V20.2912C9.84387 20.8769 9.36879 21.3894 8.74753 21.3894Z" fill="#F8F8FF"/>
<path d="M11.9635 23C11.3422 23 10.8671 22.5241 10.8671 21.9018V13.0799C10.8671 12.4576 11.3422 11.9817 11.9635 11.9817C12.5847 11.9817 13.0598 12.4576 13.0598 13.0799V21.9018C13.0598 22.4875 12.5847 23 11.9635 23Z" fill="#F8F8FF"/>
<path d="M15.2159 21.3894C14.5947 21.3894 14.1196 20.9135 14.1196 20.2912V10.5541C14.1196 9.93181 14.5947 9.45593 15.2159 9.45593C15.8372 9.45593 16.3123 9.93181 16.3123 10.5541V20.2912C16.3123 20.8769 15.8006 21.3894 15.2159 21.3894Z" fill="#F8F8FF"/>
</svg>
