<svg width="24" height="24" viewBox="0 0 24 24" fill="none" xmlns="http://www.w3.org/2000/svg">
<path d="M8.81 19C8.51667 19 8.26 18.8946 8.04 18.6838L1.33 12.2553C0.89 11.8337 0.89 11.1663 1.33 10.7799L8.04 4.31616C8.48 3.89461 9.17667 3.89461 9.58 4.31616C10.02 4.7377 10.02 5.40515 9.58 5.79157L3.64 11.4824L9.58 17.1733C10.02 17.5948 10.02 18.2623 9.58 18.6487C9.39667 18.8946 9.10333 19 8.81 19Z" fill="#F8F8FF"/>
<path d="M15.19 19C14.8967 19 14.64 18.8946 14.42 18.6838C13.98 18.2623 13.98 17.5948 14.42 17.2084L20.36 11.5176L14.3833 5.79157C13.9433 5.37002 13.9433 4.70258 14.3833 4.31616C14.8233 3.89461 15.52 3.89461 15.9233 4.31616L22.6333 10.7799C23.0733 11.2014 23.0733 11.8689 22.6333 12.2553L15.96 18.6838C15.74 18.8946 15.4467 19 15.19 19Z" fill="#F8F8FF"/>
</svg>
