<svg width="24" height="24" viewBox="0 0 24 24" fill="none" xmlns="http://www.w3.org/2000/svg">
<g clip-path="url(#clip0)">
<path d="M11.9832 15.7458C11.7822 15.7458 11.5812 15.6789 11.4137 15.5786L2.43551 9.4582C2.1675 9.25753 2 8.95652 2 8.58863C2 8.22074 2.1675 7.95318 2.46901 7.75251L11.4472 2.16723C11.7822 1.96656 12.1843 1.96656 12.5193 2.16723L21.4975 7.78595C21.799 7.95318 21.9665 8.28763 21.9665 8.62208C21.9665 8.95652 21.799 9.29097 21.531 9.4582L12.5528 15.5786C12.3853 15.6789 12.1843 15.7458 11.9832 15.7458ZM4.84757 8.65552L12.0168 13.5385L19.1859 8.65552L11.9832 4.17391L4.84757 8.65552Z" fill="#F8F8FF"/>
<path d="M11.9832 22C11.7822 22 11.5812 21.9331 11.4137 21.8328L2.43551 15.679C2.1675 15.5117 2 15.1773 2 14.8428C2 14.5084 2.1675 14.2074 2.46901 14.0067L11.4472 8.38799C11.7822 8.18732 12.1843 8.18732 12.5193 8.38799L21.4975 14.0067C21.799 14.1739 21.9665 14.5084 21.9665 14.8428C21.9665 15.1773 21.799 15.5117 21.531 15.679L12.5528 21.7994C12.3853 21.9331 12.1843 22 11.9832 22ZM4.84757 14.9097L12.0168 19.7927L19.1859 14.9097L11.9832 10.4281L4.84757 14.9097Z" fill="#F8F8FF"/>
<path d="M22 8.62207H19.9899V14.8763H22V8.62207Z" fill="#F8F8FF"/>
<path d="M4.01005 8.62207H2V14.8763H4.01005V8.62207Z" fill="#F8F8FF"/>
<path d="M12.9883 3.30438H10.9782V9.55856H12.9883V3.30438Z" fill="#F8F8FF"/>
<path d="M12.9883 14.6087H10.9782V20.8629H12.9883V14.6087Z" fill="#F8F8FF"/>
</g>
<defs>
<clipPath id="clip0">
<rect x="2" y="2" width="20" height="20" fill="white"/>
</clipPath>
</defs>
</svg>
