<svg width="24" height="24" viewBox="0 0 24 24" fill="none" xmlns="http://www.w3.org/2000/svg">
<g clip-path="url(#clip0)">
<path d="M15.2982 16.4037H8.70184C8.07538 16.4037 7.59631 15.9246 7.59631 15.2982V8.70184C7.59631 8.07538 8.07538 7.59631 8.70184 7.59631H15.2982C15.9246 7.59631 16.4037 8.07538 16.4037 8.70184V15.2982C16.4037 15.9246 15.9246 16.4037 15.2982 16.4037ZM9.80737 14.1926H14.1926V9.80737H9.80737V14.1926Z" fill="#F8F8FF"/>
<path d="M18.6147 9.80735H15.2981C14.6717 9.80735 14.1926 9.32829 14.1926 8.70183V5.38524C14.1926 2.95308 16.1825 0.963135 18.6147 0.963135C21.0469 0.963135 23.0368 2.95308 23.0368 5.38524C23 7.81741 21.01 9.80735 18.6147 9.80735ZM16.4037 7.5963H18.6147C19.8308 7.5963 20.8258 6.60133 20.8258 5.38524C20.8258 4.16916 19.8308 3.17419 18.6147 3.17419C17.3986 3.17419 16.4037 4.16916 16.4037 5.38524V7.5963Z" fill="#F8F8FF"/>
<path d="M8.70183 9.80737H5.38525C2.95308 9.80737 0.963135 7.81742 0.963135 5.38526C0.999986 2.98995 2.98994 1 5.4221 1C7.85426 1 9.84421 2.98995 9.84421 5.42211V8.73869C9.80736 9.32831 9.32829 9.80737 8.70183 9.80737ZM5.4221 3.21106C4.20602 3.21106 3.21104 4.20603 3.21104 5.42211C3.21104 6.63819 4.20602 7.63317 5.4221 7.63317H7.63315V5.42211C7.5963 4.20603 6.60133 3.21106 5.4221 3.21106Z" fill="#F8F8FF"/>
<path d="M18.6147 23C16.1825 23 14.1926 21.01 14.1926 18.5779V15.2613C14.1926 14.6348 14.6717 14.1558 15.2981 14.1558H18.6147C21.0469 14.1558 23.0368 16.1457 23.0368 18.5779C23 21.01 21.01 23 18.6147 23ZM16.4037 16.4037V18.6147C16.4037 19.8308 17.3986 20.8258 18.6147 20.8258C19.8308 20.8258 20.8258 19.8308 20.8258 18.6147C20.8258 17.3986 19.8308 16.4037 18.6147 16.4037H16.4037Z" fill="#F8F8FF"/>
<path d="M5.42211 23C2.98995 23 1 21.01 1 18.5779C1 16.1457 2.98995 14.1558 5.42211 14.1558H8.73869C9.36516 14.1558 9.84422 14.6348 9.84422 15.2613V18.5779C9.80737 21.01 7.81742 23 5.42211 23ZM5.42211 16.4037C4.20603 16.4037 3.21106 17.3986 3.21106 18.6147C3.21106 19.8308 4.20603 20.8258 5.42211 20.8258C6.63819 20.8258 7.63317 19.8308 7.63317 18.6147V16.4037H5.42211Z" fill="#F8F8FF"/>
</g>
<defs>
<clipPath id="clip0">
<rect x="1" y="1" width="22" height="22" fill="white"/>
</clipPath>
</defs>
</svg>
