<svg width="24" height="24" viewBox="0 0 24 24" fill="none" xmlns="http://www.w3.org/2000/svg">
<path d="M12 23C5.92977 23 1 18.0702 1 12C1 5.92977 5.92977 1 12 1C18.0702 1 23 5.92977 23 12C23 18.0702 18.0702 23 12 23ZM12 3.20736C7.14381 3.20736 3.20736 7.14381 3.20736 12C3.20736 16.8562 7.14381 20.7926 12 20.7926C16.8562 20.7926 20.7926 16.8562 20.7926 12C20.7926 7.14381 16.8562 3.20736 12 3.20736Z" fill="#F8F8FF"/>
<path d="M13.4348 14.5385C13.2508 14.5385 13.0669 14.5017 12.8829 14.3913C12.3679 14.097 12.1471 13.4348 12.4782 12.883L14.2441 9.71909L11.0802 11.485C10.5652 11.7793 9.8662 11.5953 9.57189 11.0803C9.27757 10.5652 9.46152 9.86624 9.97657 9.57193L16.5619 5.893C17.0033 5.63547 17.5184 5.70905 17.8863 6.07695C18.2542 6.44484 18.3277 6.95989 18.0702 7.40136L14.3913 13.9866C14.2073 14.3545 13.8394 14.5385 13.4348 14.5385Z" fill="#F8F8FF"/>
<path d="M6.8863 18.2542C6.59198 18.2542 6.33446 18.1438 6.11372 17.9231C5.74583 17.5552 5.67225 17.0401 5.92977 16.5987L9.6087 10.0134C9.90302 9.49834 10.5652 9.2776 11.1171 9.60871C11.6321 9.90302 11.8529 10.5652 11.5217 11.1171L9.75586 14.2442L12.9197 12.4783C13.4348 12.184 14.1338 12.3679 14.4281 12.883C14.7224 13.398 14.5385 14.097 14.0234 14.3913L7.43813 18.0702C7.25419 18.1806 7.07024 18.2542 6.8863 18.2542Z" fill="#F8F8FF"/>
</svg>
