<svg width="24" height="24" viewBox="0 0 24 24" fill="none" xmlns="http://www.w3.org/2000/svg">
<g clip-path="url(#clip0)">
<path d="M20.5841 23H8.79703C7.44262 23 6.34445 21.9018 6.34445 20.5474V8.797C6.34445 7.44259 7.44262 6.34442 8.79703 6.34442H20.5841C21.9385 6.34442 23.0366 7.44259 23.0366 8.797V20.584C23 21.9018 21.9019 23 20.5841 23ZM8.79703 8.54076C8.65061 8.54076 8.54079 8.65058 8.54079 8.797V20.584C8.54079 20.7304 8.65061 20.8403 8.79703 20.8403H20.5841C20.7305 20.8403 20.8403 20.7304 20.8403 20.584V8.797C20.8403 8.65058 20.7305 8.54076 20.5841 8.54076H8.79703Z" fill="#F8F8FF"/>
<path d="M4.51414 17.6556H3.45258C2.09817 17.6556 1 16.5574 1 15.203V3.45258C1 2.09817 2.09817 1 3.45258 1H15.2396C16.594 1 17.6922 2.09817 17.6922 3.45258V4.62396C17.6922 5.24626 17.2163 5.72213 16.594 5.72213C15.9717 5.72213 15.4958 5.24626 15.4958 4.62396V3.45258C15.4958 3.30616 15.386 3.19634 15.2396 3.19634H3.45258C3.30616 3.19634 3.19634 3.30616 3.19634 3.45258V15.2396C3.19634 15.386 3.30616 15.4958 3.45258 15.4958H4.51414C5.13644 15.4958 5.61231 15.9717 5.61231 16.594C5.61231 17.2163 5.09983 17.6556 4.51414 17.6556Z" fill="#F8F8FF"/>
</g>
<defs>
<clipPath id="clip0">
<rect x="1" y="1" width="22" height="22" fill="white"/>
</clipPath>
</defs>
</svg>
