<svg width="24" height="24" viewBox="0 0 24 24" fill="none" xmlns="http://www.w3.org/2000/svg">
<path d="M15.2871 16.4H8.71286C8.08849 16.4 7.61102 15.9233 7.61102 15.3V8.73666C7.61102 8.11332 8.08849 7.63666 8.71286 7.63666H15.2871C15.9115 7.63666 16.389 8.11332 16.389 8.73666V15.3C16.389 15.8867 15.9115 16.4 15.2871 16.4ZM9.8147 14.2H14.1853V9.83666H9.8147V14.2Z" fill="#F8F8FF"/>
<path d="M20.2821 21.3867H3.71786C3.09349 21.3867 2.61603 20.91 2.61603 20.2867V3.75002C2.61603 3.12669 3.09349 2.65002 3.71786 2.65002H20.2821C20.9065 2.65002 21.384 3.12669 21.384 3.75002V20.2867C21.384 20.8734 20.9065 21.3867 20.2821 21.3867ZM4.8197 19.1867H19.1803V4.85002H4.8197V19.1867Z" fill="#F8F8FF"/>
<path d="M8.74962 23C8.16197 23 7.68451 22.5233 7.68451 21.9366V20.36C7.68451 19.7733 8.16197 19.2966 8.74962 19.2966C9.33726 19.2966 9.81473 19.7733 9.81473 20.36V21.9366C9.81473 22.5233 9.33726 23 8.74962 23Z" fill="#F8F8FF"/>
<path d="M15.2872 23C14.6995 23 14.222 22.5233 14.222 21.9366V20.36C14.222 19.7733 14.6995 19.2966 15.2872 19.2966C15.8748 19.2966 16.3523 19.7733 16.3523 20.36V21.9366C16.3523 22.5233 15.8748 23 15.2872 23Z" fill="#F8F8FF"/>
<path d="M8.74962 4.66667C8.16197 4.66667 7.68451 4.19 7.68451 3.60333V2.06333C7.68451 1.47667 8.16197 1 8.74962 1C9.33726 1 9.81473 1.47667 9.81473 2.06333V3.64C9.81473 4.19 9.33726 4.66667 8.74962 4.66667Z" fill="#F8F8FF"/>
<path d="M15.2872 4.66667C14.6995 4.66667 14.222 4.19 14.222 3.60333V2.06333C14.222 1.47667 14.6995 1 15.2872 1C15.8748 1 16.3523 1.47667 16.3523 2.06333V3.64C16.3523 4.19 15.8748 4.66667 15.2872 4.66667Z" fill="#F8F8FF"/>
<path d="M21.9349 9.83669H20.3556C19.7679 9.83669 19.2905 9.36002 19.2905 8.77336C19.2905 8.18669 19.7679 7.71002 20.3556 7.71002H21.9349C22.5225 7.71002 23 8.18669 23 8.77336C23 9.36002 22.5225 9.83669 21.9349 9.83669Z" fill="#F8F8FF"/>
<path d="M21.9349 16.2533H20.3556C19.7679 16.2533 19.2905 15.7766 19.2905 15.19C19.2905 14.6033 19.7679 14.1266 20.3556 14.1266H21.9349C22.5225 14.1266 23 14.6033 23 15.19C23 15.7766 22.5225 16.2533 21.9349 16.2533Z" fill="#F8F8FF"/>
<path d="M3.60768 9.83669H2.06511C1.47746 9.83669 1 9.36002 1 8.77336C1 8.18669 1.47746 7.71002 2.06511 7.71002H3.64441C4.23205 7.71002 4.70952 8.18669 4.70952 8.77336C4.70952 9.36002 4.19533 9.83669 3.60768 9.83669Z" fill="#F8F8FF"/>
<path d="M3.60768 16.2533H2.06511C1.47746 16.2533 1 15.7766 1 15.19C1 14.6033 1.47746 14.1266 2.06511 14.1266H3.64441C4.23205 14.1266 4.70952 14.6033 4.70952 15.19C4.70952 15.7766 4.19533 16.2533 3.60768 16.2533Z" fill="#F8F8FF"/>
</svg>
