<svg width="24" height="24" viewBox="0 0 24 24" fill="none" xmlns="http://www.w3.org/2000/svg">
<path d="M21.9018 19.7421H5.31948C5.02664 19.7421 4.73379 19.6323 4.55076 19.4126C4.36774 19.193 4.22131 18.9368 4.22131 18.6439V2.09817C4.22131 1.47587 4.69719 1 5.31948 1C5.94178 1 6.41765 1.47587 6.41765 2.09817V17.5458H21.8652C22.4875 17.5458 22.9634 18.0216 22.9634 18.6439C22.9634 19.2662 22.4875 19.7421 21.9018 19.7421Z" fill="#F8F8FF"/>
<path d="M18.6439 23C18.0216 23 17.5458 22.5241 17.5458 21.9018V6.45421H2.09817C1.47587 6.45421 1 5.97834 1 5.35604C1 4.73375 1.47587 4.25787 2.09817 4.25787H18.6439C18.9368 4.25787 19.2296 4.36769 19.4126 4.58732C19.6323 4.80696 19.7421 5.0632 19.7421 5.35604V21.9018C19.7421 22.5241 19.2662 23 18.6439 23Z" fill="#F8F8FF"/>
</svg>
