<svg width="24" height="24" viewBox="0 0 24 24" fill="none" xmlns="http://www.w3.org/2000/svg">
<path d="M12 23C5.92977 23 1 18.0702 1 12C1 5.92977 5.92977 1 12 1C18.0702 1 23 5.92977 23 12C23 18.0702 18.0702 23 12 23ZM12 3.20736C7.14381 3.20736 3.20736 7.14381 3.20736 12C3.20736 16.8562 7.14381 20.7926 12 20.7926C16.8562 20.7926 20.7926 16.8562 20.7926 12C20.7926 7.14381 16.8562 3.20736 12 3.20736Z" fill="#F8F8FF"/>
<path d="M21.0134 13.0669H19.4314C18.8428 13.0669 18.3645 12.5886 18.3645 12C18.3645 11.4114 18.8428 10.9331 19.4314 10.9331H21.0134C21.602 10.9331 22.0803 11.4114 22.0803 12C22.0803 12.5886 21.602 13.0669 21.0134 13.0669Z" fill="#F8F8FF"/>
<path d="M4.53176 13.0669H2.94982C2.3612 13.0669 1.88293 12.5886 1.88293 12C1.88293 11.4114 2.3612 10.9331 2.94982 10.9331H4.53176C5.12039 10.9331 5.59865 11.4114 5.59865 12C5.59865 12.5886 5.12039 13.0669 4.53176 13.0669Z" fill="#F8F8FF"/>
<path d="M11.9632 5.59867C11.3746 5.59867 10.8963 5.12041 10.8963 4.53178V2.98663C10.8963 2.398 11.3746 1.91974 11.9632 1.91974C12.5518 1.91974 13.0301 2.398 13.0301 2.98663V4.56857C13.0301 5.12041 12.5518 5.59867 11.9632 5.59867Z" fill="#F8F8FF"/>
<path d="M11.9632 22.0803C11.3746 22.0803 10.8963 21.602 10.8963 21.0134V19.4315C10.8963 18.8428 11.3746 18.3646 11.9632 18.3646C12.5518 18.3646 13.0301 18.8428 13.0301 19.4315V21.0134C13.0301 21.602 12.5518 22.0803 11.9632 22.0803Z" fill="#F8F8FF"/>
</svg>
