<svg width="24" height="24" viewBox="0 0 24 24" fill="none" xmlns="http://www.w3.org/2000/svg">
<g clip-path="url(#clip0)">
<path d="M11.5186 23C8.3953 23 5.38356 22.2287 2.59491 20.7596C2.22309 20.576 2 20.2087 2 19.8047V4.19533C2 3.79132 2.22309 3.42404 2.59491 3.2404C5.38356 1.77129 8.3953 1 11.5186 1C14.6419 1 17.6536 1.77129 20.4423 3.2404C20.8141 3.42404 21.0372 3.79132 21.0372 4.19533V19.7679C21.0372 20.172 20.8141 20.5392 20.4423 20.7229C17.6536 22.2287 14.6419 23 11.5186 23ZM4.23092 19.1068C6.5362 20.2087 8.95303 20.7963 11.5186 20.7963C14.0842 20.7963 16.501 20.2454 18.8063 19.1068V4.89316C16.501 3.75459 14.047 3.20367 11.5186 3.20367C8.99022 3.20367 6.5362 3.75459 4.23092 4.89316V19.1068Z" fill="#F8F8FF"/>
<path d="M11.5186 8.89648C8.3953 8.89648 5.38355 8.12519 2.5949 6.65608C2.03717 6.36225 1.85126 5.70115 2.14872 5.15023C2.44617 4.59932 3.11545 4.41568 3.67318 4.7095C6.12719 6.0317 8.76712 6.69281 11.5186 6.69281C14.2701 6.69281 16.91 6.0317 19.364 4.7095C19.9217 4.41568 20.591 4.63604 20.8884 5.15023C21.1859 5.70115 20.9628 6.36225 20.4423 6.65608C17.6536 8.12519 14.6419 8.89648 11.5186 8.89648Z" fill="#F8F8FF"/>
<path d="M11.5186 15.9482C8.3953 15.9482 5.38355 15.177 2.5949 13.7078C2.03717 13.414 1.85126 12.7529 2.14872 12.202C2.44617 11.6511 3.11545 11.4674 3.67318 11.7613C6.12719 13.0835 8.76712 13.7446 11.5186 13.7446C14.2701 13.7446 16.91 13.0835 19.364 11.7613C19.9217 11.4674 20.591 11.6878 20.8884 12.202C21.1859 12.7529 20.9628 13.414 20.4423 13.7078C17.6536 15.177 14.6419 15.9482 11.5186 15.9482Z" fill="#F8F8FF"/>
</g>
<defs>
<clipPath id="clip0">
<rect x="2" y="1" width="19" height="22" fill="white"/>
</clipPath>
</defs>
</svg>
