<svg width="24" height="24" viewBox="0 0 24 24" fill="none" xmlns="http://www.w3.org/2000/svg">
<path d="M21.8963 20H8.76254C8.46823 20 8.17391 19.8868 7.98997 19.6604L1.3311 12.7925C0.889632 12.3396 0.889632 11.6226 1.3311 11.2075L7.98997 4.33962C8.17391 4.11321 8.46823 4 8.76254 4H21.8963C22.5217 4 23 4.49057 23 5.13208V18.8679C23 19.5094 22.5217 20 21.8963 20ZM9.20401 17.7358H20.7926V6.26415H9.20401L3.64883 12L9.20401 17.7358Z" fill="#F8F8FF"/>
<path d="M17.2977 15.8868C17.0033 15.8868 16.7458 15.7736 16.5251 15.5472L11.1906 10.0755C10.7492 9.62264 10.7492 8.90566 11.1906 8.49056C11.6321 8.03773 12.3311 8.03773 12.7358 8.49056L18.0702 13.9623C18.5117 14.4151 18.5117 15.1321 18.0702 15.5472C17.8495 15.7736 17.5552 15.8868 17.2977 15.8868Z" fill="#F8F8FF"/>
<path d="M11.9632 15.8868C11.6689 15.8868 11.4114 15.7736 11.1906 15.5472C10.7492 15.0943 10.7492 14.3774 11.1906 13.9623L16.5251 8.49056C16.9666 8.03773 17.6655 8.03773 18.0702 8.49056C18.4749 8.94339 18.5117 9.66037 18.0702 10.0755L12.7358 15.5472C12.515 15.7736 12.2575 15.8868 11.9632 15.8868Z" fill="#F8F8FF"/>
</svg>
