<svg width="24" height="24" viewBox="0 0 24 24" fill="none" xmlns="http://www.w3.org/2000/svg">
<path d="M12 16.5619C9.49834 16.5619 7.43814 14.5017 7.43814 12C7.43814 9.49831 9.49834 7.43811 12 7.43811C14.5017 7.43811 16.5619 9.49831 16.5619 12C16.5619 14.5017 14.5017 16.5619 12 16.5619ZM12 9.64547C10.7124 9.64547 9.6455 10.7124 9.6455 12C9.6455 13.2876 10.7124 14.3545 12 14.3545C13.2876 14.3545 14.3545 13.2876 14.3545 12C14.3545 10.7124 13.2876 9.64547 12 9.64547Z" fill="#F8F8FF"/>
<path d="M12 23C5.92977 23 1 18.0702 1 12C1 5.92977 5.92977 1 12 1C18.0702 1 23 5.92977 23 12C23 18.0702 18.0702 23 12 23ZM12 3.20736C7.14381 3.20736 3.20736 7.14381 3.20736 12C3.20736 16.8562 7.14381 20.7926 12 20.7926C16.8562 20.7926 20.7926 16.8562 20.7926 12C20.7926 7.14381 16.8562 3.20736 12 3.20736Z" fill="#F8F8FF"/>
</svg>
