<svg width="24" height="24" viewBox="0 0 24 24" fill="none" xmlns="http://www.w3.org/2000/svg">
<path d="M12 17.39C11.7067 17.39 11.45 17.28 11.23 17.06L4.62999 10.46C4.18999 10.02 4.18999 9.3233 4.62999 8.91997C5.06999 8.47997 5.76665 8.47997 6.16999 8.91997L12 14.75L17.83 8.91997C18.27 8.47997 18.9667 8.47997 19.37 8.91997C19.81 9.35997 19.81 10.0566 19.37 10.46L12.77 17.06C12.55 17.3166 12.2933 17.39 12 17.39Z" fill="#F8F8FF"/>
<path d="M21.9 23H2.1C1.47667 23 1 22.5234 1 21.9V12.5867C1 11.9634 1.47667 11.4867 2.1 11.4867C2.72333 11.4867 3.2 11.9634 3.2 12.5867V20.8H20.8V12.5867C20.8 11.9634 21.2767 11.4867 21.9 11.4867C22.5233 11.4867 23 11.9634 23 12.5867V21.9C23 22.5234 22.5233 23 21.9 23Z" fill="#F8F8FF"/>
<path d="M12 16.2167C11.3767 16.2167 10.9 15.74 10.9 15.1167V2.1C10.9 1.47667 11.3767 1 12 1C12.6234 1 13.1 1.47667 13.1 2.1V15.1167C13.1 15.74 12.6234 16.2167 12 16.2167Z" fill="#F8F8FF"/>
</svg>
