<svg width="24" height="24" viewBox="0 0 24 24" fill="none" xmlns="http://www.w3.org/2000/svg">
<g clip-path="url(#clip0)">
<path d="M12.0003 23C6.51006 23 2.00025 18.4973 2.00025 12.9282C1.96104 12.2567 1.96104 5.58166 11.4904 1.07897C12.0787 0.802489 12.7846 1.07897 13.0591 1.67143C13.3336 2.26389 13.0591 2.97484 12.4708 3.25132C4.19633 7.16155 4.35319 12.6122 4.35319 12.8492C4.35319 12.8492 4.35319 12.8887 4.35319 12.9282C4.35319 17.1939 7.76496 20.6301 12.0003 20.6301C16.2355 20.6301 19.6473 17.1544 19.6473 12.9282C19.6473 12.2567 20.1571 11.7432 20.8238 11.7432C21.4904 11.7432 22.0003 12.2567 22.0003 12.9282C22.0003 18.4578 17.5297 23 12.0003 23Z" fill="#F8F8FF"/>
<path d="M12 23C6.47059 23 2 18.4578 2 12.9282C2 12.2567 2.5098 11.7432 3.17647 11.7432C3.84314 11.7432 4.35294 12.2567 4.35294 12.9282C4.35294 17.1939 7.76471 20.6301 12 20.6301C16.2353 20.6301 19.6471 17.1544 19.6471 12.9282C19.6471 12.8887 19.6471 12.8887 19.6471 12.8492C19.6471 12.6122 19.8039 7.16155 11.4902 3.25132C10.902 2.97484 10.6275 2.26389 10.902 1.67143C11.1765 1.07897 11.8824 0.802489 12.4706 1.07897C22 5.54217 22 12.2172 21.9608 12.9282C22 18.4973 17.4902 23 12 23Z" fill="#F8F8FF"/>
</g>
<defs>
<clipPath id="clip0">
<rect x="2" y="1" width="20" height="22" fill="white"/>
</clipPath>
</defs>
</svg>
