<svg width="24" height="24" viewBox="0 0 24 24" fill="none" xmlns="http://www.w3.org/2000/svg">
<path d="M21.9 23H2.1C1.47667 23 1 22.5241 1 21.9018V3.67221C1 3.04991 1.47667 2.57404 2.1 2.57404H10.7167C11.34 2.57404 11.8167 3.04991 11.8167 3.67221C11.8167 4.2945 11.34 4.77038 10.7167 4.77038H3.2V20.8037H20.8V12.0915C20.8 11.4692 21.2767 10.9933 21.9 10.9933C22.5233 10.9933 23 11.4692 23 12.0915V21.9018C23 22.5241 22.4867 23 21.9 23Z" fill="#F8F8FF"/>
<path d="M7.74664 17.3261C7.4533 17.3261 7.15997 17.2163 6.97664 16.9967C6.75664 16.777 6.64664 16.5208 6.64664 16.228V11.8353C6.64664 11.5424 6.75664 11.2496 6.97664 11.0666L16.73 1.32945C16.9133 1.10982 17.2066 1 17.5 1C17.7933 1 18.0866 1.10982 18.27 1.32945L22.67 5.72213C23.11 6.1614 23.11 6.8569 22.67 7.25957L12.9166 16.9967C12.6966 17.2163 12.44 17.3261 12.1466 17.3261H7.74664ZM8.84664 12.2745V15.0932H11.67L20.3233 6.49085L17.5 3.63561L8.84664 12.2745Z" fill="#F8F8FF"/>
</svg>
