<svg width="24" height="24" viewBox="0 0 24 24" fill="none" xmlns="http://www.w3.org/2000/svg">
<g clip-path="url(#clip0)">
<path d="M21.9015 12.1268C21.572 12.1268 21.2059 11.9765 20.9863 11.6385C18.1677 7.46948 15.0562 5.25352 11.9813 5.25352C8.90645 5.25352 5.83157 7.46948 3.01294 11.6385C2.68349 12.1643 1.98798 12.277 1.4755 11.939C0.963021 11.6009 0.853204 10.8873 1.18265 10.3615C4.51377 5.47887 8.13773 3 11.9813 3C15.8249 3 19.4855 5.47887 22.78 10.3615C23.1094 10.8873 22.9996 11.5634 22.4871 11.939C22.3407 12.0516 22.1211 12.1268 21.9015 12.1268Z" fill="#F8F8FF"/>
<path d="M11.9817 19C8.13813 19 4.51417 16.5212 1.18305 11.6385C0.8536 11.1127 0.963417 10.4367 1.4759 10.0611C1.98838 9.72304 2.64728 9.83571 3.01333 10.3615C5.83197 14.5306 8.94345 16.7465 12.0183 16.7465C15.0932 16.7465 18.1681 14.5306 21.0233 10.3615C21.3528 9.83571 22.0483 9.72304 22.5608 10.0611C23.0732 10.3991 23.183 11.1127 22.8536 11.6385C19.4859 16.5212 15.8619 19 11.9817 19Z" fill="#F8F8FF"/>
<path d="M11.9817 15.6573C9.49254 15.6573 7.44263 13.554 7.44263 11C7.44263 8.446 9.49254 6.34271 11.9817 6.34271C14.4709 6.34271 16.5208 8.446 16.5208 11C16.5208 13.554 14.5075 15.6573 11.9817 15.6573ZM11.9817 8.59623C10.7005 8.59623 9.63897 9.68544 9.63897 11C9.63897 12.3145 10.7005 13.4037 11.9817 13.4037C13.2629 13.4037 14.3245 12.3145 14.3245 11C14.3245 9.68544 13.2995 8.59623 11.9817 8.59623Z" fill="#F8F8FF"/>
</g>
<defs>
<clipPath id="clip0">
<rect x="1" y="3" width="22" height="16" fill="white"/>
</clipPath>
</defs>
</svg>
