<svg width="24" height="24" viewBox="0 0 24 24" fill="none" xmlns="http://www.w3.org/2000/svg">
<g clip-path="url(#clip0)">
<path d="M13.0986 23H9.29577C8.69718 23 8.23944 22.5225 8.23944 21.8982V14.4424H6.05634C5.45775 14.4424 5 13.9649 5 13.3406V9.59432C5 8.96995 5.45775 8.49249 6.05634 8.49249H8.23944V7.79466C8.23944 4.04841 11.162 1 14.7535 1H18.9789C19.5775 1 20.0352 1.47746 20.0352 2.10184V6.06845C20.0352 6.69282 19.5775 7.17028 18.9789 7.17028H15.3521C14.6831 7.17028 14.1197 7.75793 14.1197 8.45576V8.52921H16.5493C17.1479 8.52921 17.6056 9.00668 17.6056 9.63105V13.3773C17.6056 14.0017 17.1479 14.4791 16.5493 14.4791H14.1549V21.9349C14.1549 22.5225 13.662 23 13.0986 23ZM10.3521 20.7963H12.0423V13.3406C12.0423 12.7162 12.5 12.2387 13.0986 12.2387H15.5282V10.6962H13.0986C12.5 10.6962 12.0423 10.2187 12.0423 9.59432V8.41903C12.0423 6.50918 13.5211 4.92988 15.3873 4.92988H17.9225V3.20367H14.7535C12.3239 3.20367 10.3521 5.26043 10.3521 7.79466V9.59432C10.3521 10.2187 9.89437 10.6962 9.29577 10.6962H7.11268V12.2387H9.29577C9.89437 12.2387 10.3521 12.7162 10.3521 13.3406V20.7963Z" fill="#F8F8FF"/>
</g>
<defs>
<clipPath id="clip0">
<rect x="5" y="1" width="15" height="22" fill="white"/>
</clipPath>
</defs>
</svg>
