<svg width="24" height="24" viewBox="0 0 24 24" fill="none" xmlns="http://www.w3.org/2000/svg">
<g clip-path="url(#clip0)">
<path d="M11.7007 20.2313H4.9286C4.29255 20.2313 3.80615 19.7449 3.80615 19.1088V12.2993C3.80615 12 3.9184 11.7007 4.14289 11.5136L12.898 2.72109C14.0204 1.59864 15.517 1 17.0885 1C18.6599 1 20.1565 1.59864 21.2789 2.72109C23.5987 5.04082 23.5987 8.78231 21.2789 11.102L12.4864 19.8946C12.2993 20.0816 12 20.2313 11.7007 20.2313ZM6.05105 17.9864H11.2517L19.6701 9.53061C21.0919 8.10884 21.0919 5.7517 19.6701 4.32993C18.9592 3.61905 18.0613 3.2449 17.051 3.2449C16.0783 3.2449 15.1429 3.61905 14.432 4.32993L6.05105 12.7483V17.9864Z" fill="#F8F8FF"/>
<path d="M2.12245 23C1.82313 23 1.56122 22.8877 1.33673 22.6633C0.887755 22.2143 0.887755 21.5034 1.33673 21.0918L14.2075 8.22107C14.6565 7.77209 15.3673 7.77209 15.7789 8.22107C16.2279 8.67005 16.2279 9.38094 15.7789 9.7925L2.90816 22.6633C2.68367 22.8877 2.42177 23 2.12245 23Z" fill="#F8F8FF"/>
<path d="M15.4048 16.0408H9.08168C8.44562 16.0408 7.95923 15.5544 7.95923 14.9183C7.95923 14.2823 8.44562 13.7959 9.08168 13.7959H15.4048C16.0409 13.7959 16.5273 14.2823 16.5273 14.9183C16.5273 15.5544 16.0409 16.0408 15.4048 16.0408Z" fill="#F8F8FF"/>
</g>
<defs>
<clipPath id="clip0">
<rect x="1" y="1" width="22" height="22" fill="white"/>
</clipPath>
</defs>
</svg>
