<svg width="24" height="24" viewBox="0 0 24 24" fill="none" xmlns="http://www.w3.org/2000/svg">
<path d="M19.8911 23H3.10895C2.48054 23 2 22.5241 2 21.9018V2.09817C2 1.47587 2.48054 1 3.10895 1H12.4241C13.0525 1 13.5331 1.47587 13.5331 2.09817V8.39434H19.8911C20.5195 8.39434 21 8.87022 21 9.49251V21.9018C21 22.4875 20.5195 23 19.8911 23ZM4.2179 20.8037H18.7821V10.5907H12.4241C11.7957 10.5907 11.3152 10.1148 11.3152 9.49251V3.19634H4.2179V20.8037Z" fill="#F8F8FF"/>
<path d="M19.8911 10.5907C19.5953 10.5907 19.3366 10.4809 19.1148 10.2612L11.6479 2.86689C11.2043 2.42762 11.2043 1.73211 11.6479 1.32945C12.0915 0.890183 12.7938 0.890183 13.2004 1.32945L20.6673 8.68719C21.1109 9.12646 21.1109 9.82196 20.6673 10.2246C20.4455 10.4809 20.1868 10.5907 19.8911 10.5907Z" fill="#F8F8FF"/>
</svg>
