<svg width="24" height="24" viewBox="0 0 24 24" fill="none" xmlns="http://www.w3.org/2000/svg">
<path d="M21.9 23H2.1C1.47667 23 1 22.5241 1 21.9018V2.09817C1 1.47587 1.47667 1 2.1 1H21.9C22.5233 1 23 1.47587 23 2.09817V21.9018C23 22.4875 22.5233 23 21.9 23ZM3.2 20.8037H20.8V3.19634H3.2V20.8037Z" fill="#F8F8FF"/>
<path d="M18.3067 22.9634C17.6833 22.9634 17.2067 22.4875 17.2067 21.8652V2.09817C17.2067 1.47587 17.6833 1 18.3067 1C18.93 1 19.4067 1.47587 19.4067 2.09817V21.8652C19.4067 22.4509 18.93 22.9634 18.3067 22.9634Z" fill="#F8F8FF"/>
<path d="M5.69333 18.0948H2.1C1.47667 18.0948 1 17.619 1 16.9967C1 16.3744 1.47667 15.8985 2.1 15.8985H5.69333C6.31667 15.8985 6.79333 16.3744 6.79333 16.9967C6.79333 17.619 6.31667 18.0948 5.69333 18.0948Z" fill="#F8F8FF"/>
<path d="M21.9 13.0799H2.1C1.47667 13.0799 1 12.604 1 11.9817C1 11.3594 1.47667 10.8835 2.1 10.8835H21.9C22.5233 10.8835 23 11.3594 23 11.9817C23 12.604 22.5233 13.0799 21.9 13.0799Z" fill="#F8F8FF"/>
<path d="M5.69333 8.06487H2.1C1.47667 8.06487 1 7.589 1 6.9667C1 6.3444 1.47667 5.86853 2.1 5.86853H5.69333C6.31667 5.86853 6.79333 6.3444 6.79333 6.9667C6.79333 7.589 6.31667 8.06487 5.69333 8.06487Z" fill="#F8F8FF"/>
<path d="M21.9 18.0948H18.3067C17.6833 18.0948 17.2067 17.619 17.2067 16.9967C17.2067 16.3744 17.6833 15.8985 18.3067 15.8985H21.9C22.5233 15.8985 23 16.3744 23 16.9967C23 17.619 22.5233 18.0948 21.9 18.0948Z" fill="#F8F8FF"/>
<path d="M21.9 8.06487H18.3067C17.6833 8.06487 17.2067 7.589 17.2067 6.9667C17.2067 6.3444 17.6833 5.86853 18.3067 5.86853H21.9C22.5233 5.86853 23 6.3444 23 6.9667C23 7.589 22.5233 8.06487 21.9 8.06487Z" fill="#F8F8FF"/>
<path d="M5.69335 22.9634C5.07002 22.9634 4.59335 22.4875 4.59335 21.8652V2.09817C4.59335 1.47587 5.07002 1 5.69335 1C6.31669 1 6.79335 1.47587 6.79335 2.09817V21.8652C6.79335 22.4509 6.31669 22.9634 5.69335 22.9634Z" fill="#F8F8FF"/>
</svg>
