<svg width="24" height="24" viewBox="0 0 24 24" fill="none" xmlns="http://www.w3.org/2000/svg">
<g clip-path="url(#clip0)">
<path d="M14.3483 21C14.1634 21 13.9786 20.9629 13.7938 20.8516L10.0603 18.7363C9.72764 18.5508 9.50585 18.1797 9.50585 17.7715V11.834L3.2218 3.81836C2.96305 3.48438 2.92608 3.03906 3.11091 2.63086C3.29573 2.25977 3.70235 2 4.10896 2H20.8911C21.2977 2 21.7043 2.25977 21.8891 2.63086C22.0739 3.00195 22.037 3.48438 21.7782 3.81836L15.4942 11.8711V19.8867C15.4942 20.2949 15.2724 20.666 14.9397 20.8516C14.7549 20.9629 14.57 21 14.3483 21ZM11.7607 17.1406L13.2763 17.9941V11.4629C13.2763 11.2031 13.3502 10.9805 13.4981 10.7578L18.5992 4.22656H6.40079L11.502 10.7949C11.6498 10.9805 11.7237 11.2402 11.7237 11.5V17.1406H11.7607Z" fill="#F8F8FF"/>
</g>
<defs>
<clipPath id="clip0">
<rect x="3" y="2" width="19" height="19" fill="white"/>
</clipPath>
</defs>
</svg>
