<svg width="24" height="24" viewBox="0 0 24 24" fill="none" xmlns="http://www.w3.org/2000/svg">
<g clip-path="url(#clip0)">
<path d="M3.20387 23C2.54367 23 2.03882 22.5241 2.03882 21.9018V2.09817C2.03882 1.47587 2.54367 1 3.20387 1C3.86406 1 4.36892 1.47587 4.36892 2.09817V21.9018C4.36892 22.5241 3.82523 23 3.20387 23Z" fill="#F8F8FF"/>
<path d="M20.8349 17.5823C20.7573 17.5823 20.6408 17.5823 20.5631 17.5457L13.4175 16.0083C12.3689 15.7887 11.5534 15.0199 11.2427 14.0682L10.8544 12.787C10.7767 12.4942 10.5048 12.2379 10.1553 12.2013L2.97086 10.9933C2.3495 10.8835 1.92231 10.2978 1.99998 9.67552C2.07765 9.05323 2.73785 8.65057 3.35921 8.76038L10.5825 9.93176C11.8252 10.1514 12.8349 10.9933 13.1456 12.1281L13.534 13.4093C13.5728 13.5923 13.7281 13.7388 13.9223 13.7754L19.5922 15.0199V9.5291L13.3786 8.17469C12.3301 7.95506 11.5145 7.18634 11.2039 6.23459L10.8155 4.95339C10.7378 4.66055 10.466 4.40431 10.1165 4.3677L2.97086 3.23293C2.3495 3.12311 1.92231 2.53742 1.99998 1.91512C2.07765 1.29283 2.73785 0.926772 3.39804 0.999983L10.6213 2.17136C11.8641 2.391 12.8738 3.23293 13.1845 4.3677L13.5728 5.6489C13.6116 5.83193 13.767 5.97835 13.9611 6.01496L21.0679 7.589C21.6116 7.69882 22 8.17469 22 8.68717V16.4476C22 16.777 21.8446 17.1065 21.534 17.3261C21.3398 17.5091 21.0679 17.5823 20.8349 17.5823Z" fill="#F8F8FF"/>
</g>
<defs>
<clipPath id="clip0">
<rect x="2" y="1" width="20" height="22" fill="white"/>
</clipPath>
</defs>
</svg>
