<svg width="24" height="24" viewBox="0 0 24 24" fill="none" xmlns="http://www.w3.org/2000/svg">
<g clip-path="url(#clip0)">
<path d="M21.9 21H2.1C1.47667 21 1 20.5185 1 19.8889V4.92593C1 3.2963 2.28333 2 3.89667 2H8.66333C9.54333 2 10.3867 2.40741 10.9367 3.14815L12.55 5.25926H20.14C21.7167 5.25926 23.0367 6.55556 23.0367 8.18519V19.9259C23 20.5185 22.5233 21 21.9 21ZM3.2 18.7778H20.8V8.14815C20.8 7.77778 20.5067 7.44444 20.1033 7.44444H12C11.67 7.44444 11.34 7.2963 11.12 7L9.17667 4.44444C9.03 4.33333 8.84667 4.22222 8.62667 4.22222H3.86C3.49333 4.22222 3.2 4.51852 3.2 4.92593V18.7778Z" fill="#F8F8FF"/>
</g>
<defs>
<clipPath id="clip0">
<rect x="1" y="2" width="22" height="19" fill="white"/>
</clipPath>
</defs>
</svg>
