<svg width="24" height="24" viewBox="0 0 24 24" fill="none" xmlns="http://www.w3.org/2000/svg">
<g clip-path="url(#clip0)">
<path d="M20.2866 23H3.71328C3.08995 23 2.61328 22.5249 2.61328 21.9036V9.40531C2.61328 8.78404 3.08995 8.30896 3.71328 8.30896C4.33661 8.30896 4.81328 8.78404 4.81328 9.40531V20.8073H19.1866V9.40531C19.1866 8.78404 19.6633 8.30896 20.2866 8.30896C20.9099 8.30896 21.3866 8.78404 21.3866 9.40531V21.9036C21.3866 22.4884 20.8733 23 20.2866 23Z" fill="#F8F8FF"/>
<path d="M21.9 10.5016H2.1C1.47667 10.5016 1 10.0265 1 9.40528V5.38535C1 4.76408 1.47667 4.289 2.1 4.289H21.9C22.5233 4.289 23 4.76408 23 5.38535V9.40528C23 10.0265 22.5233 10.5016 21.9 10.5016ZM3.2 8.30893H20.8V6.48169H3.2V8.30893Z" fill="#F8F8FF"/>
<path d="M12 22.4883C11.3767 22.4883 10.9 22.0133 10.9 21.392V5.38535C10.9 4.76408 11.3767 4.289 12 4.289C12.6234 4.289 13.1 4.76408 13.1 5.38535V21.392C13.1 21.9767 12.5867 22.4883 12 22.4883Z" fill="#F8F8FF"/>
<path d="M18.6734 6.48172C18.6 6.48172 18.49 6.48172 18.4167 6.44518C17.83 6.299 17.4634 5.71428 17.61 5.12956C17.61 5.09302 17.9034 3.70431 17.2434 3.41195C16.62 3.1196 15.7767 3.1196 14.9334 3.48504C14.0167 3.85049 13.2467 4.58139 12.99 5.27574C12.77 5.86046 12.1467 6.15282 11.5967 5.93355C11.01 5.71428 10.7167 5.09302 10.9367 4.54484C11.4134 3.26577 12.6234 2.09634 14.09 1.47508C15.52 0.89036 16.9867 0.89036 18.16 1.43853C19.9934 2.31561 19.9934 4.47176 19.7 5.64119C19.6267 6.11627 19.1867 6.48172 18.6734 6.48172Z" fill="#F8F8FF"/>
<path d="M5.4733 6.44517C4.95997 6.44517 4.51997 6.11627 4.40997 5.60464C4.11664 4.47175 4.11664 2.27906 5.94997 1.43853C7.15997 0.853812 8.58997 0.853812 10.02 1.47507C11.5233 2.09634 12.7333 3.26577 13.1733 4.54484C13.3933 5.12956 13.0633 5.75082 12.5133 5.93355C11.9266 6.15281 11.3033 5.82391 11.12 5.27574C10.8633 4.58139 10.0933 3.85049 9.17664 3.48504C8.3333 3.15614 7.48997 3.11959 6.86664 3.41195C6.2433 3.70431 6.49997 5.09301 6.49997 5.12956C6.64664 5.71428 6.27997 6.29899 5.6933 6.44517C5.65664 6.44517 5.54664 6.44517 5.4733 6.44517Z" fill="#F8F8FF"/>
</g>
<defs>
<clipPath id="clip0">
<rect x="1" y="1" width="22" height="22" fill="white"/>
</clipPath>
</defs>
</svg>
