<svg width="24" height="24" viewBox="0 0 24 24" fill="none" xmlns="http://www.w3.org/2000/svg">
<path d="M16.3069 23H9.83737C9.2089 23 8.72831 22.506 8.72831 21.8601V17.3385C8.72831 16.6546 8.87619 16.0086 9.13497 15.4387C6.10354 14.2988 4.10724 11.905 4.10724 9.24525C4.10724 7.99136 4.51389 6.81347 5.29023 5.78756C4.99448 4.79965 4.92055 3.54577 4.99448 2.1019C5.06842 1.45596 5.54901 1 6.14051 1C6.47323 1 9.28284 1.038 10.9095 2.51986C12.3143 2.25389 13.793 2.25389 15.2348 2.51986C16.8244 1.038 19.634 1 20.0037 1C20.5952 1 21.0758 1.45596 21.1128 2.0639C21.2237 3.50777 21.1128 4.76166 20.817 5.74957C21.5934 6.81347 22 7.99136 22 9.20725C22 11.867 20.0037 14.2608 16.9723 15.4007C17.2311 16.0086 17.379 16.6546 17.379 17.3005V21.8221C17.4159 22.468 16.8984 23 16.3069 23ZM10.9464 20.7202H15.1978V17.3385C15.1978 16.6926 14.9021 16.0846 14.4215 15.6667C14.0888 15.4007 13.9409 14.9447 14.0518 14.4888C14.1627 14.0708 14.4954 13.7288 14.9021 13.6528C17.7856 13.0829 19.7819 11.2591 19.7819 9.20725C19.7819 8.10535 19.1904 7.26943 18.7098 6.73748C18.3771 6.39551 18.3032 5.90155 18.525 5.4456C18.6729 5.14162 18.8947 4.49568 18.8947 3.35579C17.9705 3.50777 16.8984 3.81174 16.4917 4.41969C16.2329 4.79965 15.7523 4.98964 15.3087 4.87565C13.83 4.49568 12.2403 4.49568 10.7616 4.87565C10.318 4.98964 9.87434 4.79965 9.57859 4.41969C9.17193 3.81174 8.09985 3.50777 7.17563 3.35579C7.2126 4.49568 7.39744 5.14162 7.54532 5.4456C7.73016 5.86356 7.65622 6.39551 7.36047 6.73748C6.87988 7.26943 6.28839 8.10535 6.28839 9.20725C6.28839 11.2591 8.28469 13.0449 11.1682 13.6528C11.5749 13.7288 11.9076 14.0708 12.0185 14.4888C12.1294 14.9067 11.9815 15.3627 11.6488 15.6667C11.1682 16.0846 10.8725 16.6926 10.8725 17.3385V20.7202H10.9464Z" fill="#F8F8FF"/>
<path d="M9.46762 18.4784C4.47686 18.4784 2.22177 13.9188 2.11087 13.7288C1.85209 13.1589 2.0739 12.475 2.59146 12.209C3.14599 11.943 3.81142 12.171 4.0702 12.7029C4.14414 12.8549 5.9556 16.3886 9.7264 16.1986C10.3549 16.1606 10.8724 16.6546 10.8724 17.3005C10.9094 17.9465 10.4288 18.4784 9.80033 18.4784C9.7264 18.4784 9.61549 18.4784 9.46762 18.4784Z" fill="#F8F8FF"/>
</svg>
