<svg width="24" height="24" viewBox="0 0 24 24" fill="none" xmlns="http://www.w3.org/2000/svg">
<path d="M11.9993 23C11.7059 23 11.4493 22.8902 11.2293 22.6706L1.32925 12.9334C1.03592 12.6406 0.925919 12.1647 1.07259 11.7621L4.92259 1.69551C5.10592 1.29285 5.50925 1 5.94925 1H6.05925C6.49925 1 6.90259 1.25624 7.08592 1.69551L9.35925 7.22296H14.6759L16.9126 1.69551C17.0593 1.25624 17.4626 1 17.9393 1H18.0493C18.4893 1 18.9293 1.29285 19.0759 1.69551L22.9259 11.7621C23.0726 12.1647 22.9993 12.6406 22.6693 12.9334L12.7693 22.6706C12.5493 22.8902 12.2926 23 11.9993 23ZM3.38259 11.9085L11.9993 20.3644L20.6159 11.8719L17.9393 4.91681L16.3993 8.72379C16.2159 9.12646 15.8126 9.4193 15.3726 9.4193H8.58925C8.14925 9.4193 7.74592 9.16306 7.56259 8.72379L6.02259 4.95341L3.38259 11.9085Z" fill="#F8F8FF"/>
</svg>
