<svg width="24" height="24" viewBox="0 0 24 24" fill="none" xmlns="http://www.w3.org/2000/svg">
<path d="M12 23C5.92977 23 1 18.0702 1 12C1 5.92977 5.92977 1 12 1C18.0702 1 23 5.92977 23 12C23 18.0702 18.0702 23 12 23ZM12 3.20736C7.14381 3.20736 3.20736 7.14381 3.20736 12C3.20736 16.8562 7.14381 20.7926 12 20.7926C16.8562 20.7926 20.7926 16.8562 20.7926 12C20.7926 7.14381 16.8562 3.20736 12 3.20736Z" fill="#F8F8FF"/>
<path d="M12.3679 21.8595C12.1839 21.8595 12.0368 21.8228 11.8528 21.7492C8.21069 19.8361 5.92975 16.1204 5.92975 12C5.92975 7.87961 8.21069 4.16389 11.8528 2.25085C12.4047 1.95653 13.0669 2.17727 13.3244 2.72911C13.6187 3.28095 13.398 3.94316 12.8461 4.20068C9.97657 5.74583 8.1739 8.72576 8.1739 12C8.1739 15.2743 9.97657 18.2542 12.8829 19.7993C13.4348 20.0937 13.6187 20.7559 13.3612 21.2709C13.1405 21.6756 12.7726 21.8595 12.3679 21.8595Z" fill="#F8F8FF"/>
<path d="M11.6321 21.8595C11.2274 21.8595 10.8595 21.6388 10.6388 21.2709C10.3445 20.719 10.5652 20.0568 11.117 19.7993C14.0234 18.2909 15.8261 15.2742 15.8261 12C15.8261 8.72571 14.0234 5.74578 11.117 4.20063C10.5652 3.90631 10.3813 3.2441 10.6388 2.72905C10.9331 2.17721 11.5953 1.99327 12.1104 2.25079C15.7525 4.16384 18.0334 7.87956 18.0334 12C18.0334 16.1204 15.7525 19.8361 12.1104 21.7491C12 21.8227 11.816 21.8595 11.6321 21.8595Z" fill="#F8F8FF"/>
<path d="M21.8963 13.1037H2.10368C1.47826 13.1037 1 12.6254 1 12C1 11.3746 1.47826 10.8963 2.10368 10.8963H21.8963C22.5217 10.8963 23 11.3746 23 12C23 12.6254 22.5217 13.1037 21.8963 13.1037Z" fill="#F8F8FF"/>
</svg>
