<svg width="24" height="24" viewBox="0 0 24 24" fill="none" xmlns="http://www.w3.org/2000/svg">
<path d="M9.86622 10.9699H2.10368C1.47826 10.9699 1 10.4916 1 9.86622V2.10368C1 1.47826 1.47826 1 2.10368 1H9.86622C10.4916 1 10.9699 1.47826 10.9699 2.10368V9.86622C10.9699 10.4916 10.4916 10.9699 9.86622 10.9699ZM3.20736 8.76254H8.76254V3.20736H3.20736V8.76254Z" fill="#F8F8FF"/>
<path d="M9.86622 23H2.10368C1.47826 23 1 22.5217 1 21.8963V14.1338C1 13.5084 1.47826 13.0301 2.10368 13.0301H9.86622C10.4916 13.0301 10.9699 13.5084 10.9699 14.1338V21.8963C10.9699 22.5217 10.4916 23 9.86622 23ZM3.20736 20.7926H8.76254V15.2374H3.20736V20.7926Z" fill="#F8F8FF"/>
<path d="M21.8963 10.9699H14.1338C13.5084 10.9699 13.0301 10.4916 13.0301 9.86622V2.10368C13.0301 1.47826 13.5084 1 14.1338 1H21.8963C22.5217 1 23 1.47826 23 2.10368V9.86622C23 10.4916 22.5217 10.9699 21.8963 10.9699ZM15.2374 8.76254H20.7926V3.20736H15.2374V8.76254Z" fill="#F8F8FF"/>
<path d="M21.8963 23H14.1338C13.5084 23 13.0301 22.5217 13.0301 21.8963V14.1338C13.0301 13.5084 13.5084 13.0301 14.1338 13.0301H21.8963C22.5217 13.0301 23 13.5084 23 14.1338V21.8963C23 22.5217 22.5217 23 21.8963 23ZM15.2374 20.7926H20.7926V15.2374H15.2374V20.7926Z" fill="#F8F8FF"/>
</svg>
