<svg width="24" height="24" viewBox="0 0 24 24" fill="none" xmlns="http://www.w3.org/2000/svg">
<g clip-path="url(#clip0)">
<path d="M7.34334 22C7.27001 22 7.23334 22 7.16001 22C6.57334 21.8899 6.17001 21.3392 6.28001 20.715L9.50668 1.91784C9.58001 1.33042 10.1667 0.926578 10.7533 1.00001C11.34 1.11014 11.7433 1.66084 11.6333 2.28497L8.40668 21.0822C8.33334 21.6329 7.85668 22 7.34334 22Z" fill="#F8F8FF"/>
<path d="M13.5033 22C13.43 22 13.3933 22 13.32 22C12.7333 21.8898 12.33 21.3391 12.44 20.715L15.6666 1.9178C15.7766 1.33039 16.3266 0.926545 16.95 1.03668C17.5366 1.14682 17.94 1.69752 17.83 2.32165L14.5666 21.0821C14.4933 21.6328 14.0166 22 13.5033 22Z" fill="#F8F8FF"/>
<path d="M21.9 9.37064H2.1C1.47667 9.37064 1 8.89337 1 8.26924C1 7.64512 1.47667 7.16785 2.1 7.16785H21.9C22.5233 7.16785 23 7.64512 23 8.26924C23 8.89337 22.5233 9.37064 21.9 9.37064Z" fill="#F8F8FF"/>
<path d="M21.9 15.8322H2.1C1.47667 15.8322 1 15.3549 1 14.7308C1 14.1067 1.47667 13.6294 2.1 13.6294H21.9C22.5233 13.6294 23 14.1067 23 14.7308C23 15.3549 22.5233 15.8322 21.9 15.8322Z" fill="#F8F8FF"/>
</g>
<defs>
<clipPath id="clip0">
<rect x="1" y="1" width="22" height="21" fill="white"/>
</clipPath>
</defs>
</svg>
