<svg width="24" height="24" viewBox="0 0 24 24" fill="none" xmlns="http://www.w3.org/2000/svg">
<path d="M21.9 23C21.2767 23 20.8 22.5225 20.8 21.8982V12.0184C20.8 7.17028 16.84 3.20367 12 3.20367C7.16 3.20367 3.2 7.17028 3.2 12.0184V21.8982C3.2 22.5225 2.72333 23 2.1 23C1.47667 23 1 22.5225 1 21.8982V12.0184C1 5.95826 5.95 1 12 1C18.05 1 23 5.95826 23 12.0184V21.8982C23 22.5225 22.4867 23 21.9 23Z" fill="#F8F8FF"/>
<path d="M5.36333 23H2.1C1.47667 23 1 22.5225 1 21.8982V13.7079C1 13.0835 1.47667 12.606 2.1 12.606H6.5C7.12333 12.606 7.6 13.0835 7.6 13.7079V20.7963C7.6 22.0084 6.57333 23 5.36333 23ZM3.2 20.7963H5.36333C5.36333 20.7963 5.4 20.7963 5.4 20.7596V14.8097H3.2V20.7963Z" fill="#F8F8FF"/>
<path d="M21.9 23H18.6367C17.39 23 16.4 22.0084 16.4 20.7596V13.7079C16.4 13.0835 16.8767 12.606 17.5 12.606H21.9C22.5234 12.606 23 13.0835 23 13.7079V21.9349C23 22.5225 22.4867 23 21.9 23ZM18.6 14.8097V20.7963C18.6 20.7963 18.6 20.8331 18.6367 20.8331H20.8V14.8097H18.6Z" fill="#F8F8FF"/>
</svg>
