<svg width="24" height="24" viewBox="0 0 24 24" fill="none" xmlns="http://www.w3.org/2000/svg">
<g clip-path="url(#clip0)">
<path d="M11.9307 22.3659C11.8569 22.3659 11.7462 22.3659 11.6725 22.329C11.488 22.2922 11.3404 22.1815 11.1928 22.0708L2.92838 13.6219C0.235056 10.8548 0.235056 6.42738 2.92838 3.69716C4.03522 2.59032 5.40033 2 6.87612 2H6.91302C8.57328 2 10.3811 2.77479 11.9676 4.1399C13.5172 2.77479 15.325 2 16.9853 2H17.0222C18.498 2 19.8631 2.59032 20.9699 3.69716C23.6633 6.39048 23.6633 10.8548 20.9699 13.6219L12.6686 22.0708C12.4841 22.2922 12.2259 22.3659 11.9307 22.3659ZM6.87612 4.06611C5.95375 4.06611 5.10517 4.43506 4.36728 5.17295C2.44875 7.09149 2.44875 10.2275 4.36728 12.183L11.9307 19.894L19.4942 12.183C21.4127 10.2275 21.4127 7.09149 19.4942 5.17295C18.7563 4.43506 17.9446 4.06611 16.9853 4.06611C16.9853 4.06611 16.9853 4.06611 16.9484 4.06611C15.5833 4.06611 13.9968 4.8778 12.6317 6.2798L12.5948 6.31669C12.4103 6.50117 12.1152 6.61185 11.8569 6.61185C11.5987 6.61185 11.3404 6.50117 11.119 6.2798C9.8646 4.8778 8.27813 4.06611 6.87612 4.06611Z" fill="#F8F8FF"/>
</g>
<defs>
<clipPath id="clip0">
<rect x="0.900024" y="2" width="22.1" height="20.3659" fill="white"/>
</clipPath>
</defs>
</svg>
