<svg width="24" height="24" viewBox="0 0 24 24" fill="none" xmlns="http://www.w3.org/2000/svg">
<g clip-path="url(#clip0)">
<path d="M20.5433 23H3.45667C2.1 23 1 21.9 1 20.5434V11.01C1 10.3867 1.47667 9.91003 2.1 9.91003C2.72333 9.91003 3.2 10.3867 3.2 11.01V20.5434C3.2 20.69 3.31 20.8 3.45667 20.8H20.5433C20.69 20.8 20.8 20.69 20.8 20.5434V11.01C20.8 10.3867 21.2767 9.91003 21.9 9.91003C22.5233 9.91003 23 10.3867 23 11.01V20.5434C23 21.9 21.9 23 20.5433 23Z" fill="#F8F8FF"/>
<path d="M21.9 12.11C21.6433 12.11 21.3866 12 21.1666 11.8167L12 3.5667L2.83332 11.8167C2.39332 12.22 1.69665 12.1834 1.29332 11.7434C0.889984 11.2667 0.926651 10.57 1.36665 10.1667L11.2666 1.29337C11.67 0.926705 12.33 0.926705 12.7333 1.29337L22.6333 10.1667C23.0733 10.57 23.11 11.2667 22.7066 11.7067C22.4866 11.9634 22.1933 12.11 21.9 12.11Z" fill="#F8F8FF"/>
<path d="M14.7133 23.0001H9.28668C8.66334 23.0001 8.18668 22.5234 8.18668 21.9001V13.1001C8.18668 12.4767 8.66334 12.0001 9.28668 12.0001H14.6767C15.3 12.0001 15.7767 12.4767 15.7767 13.1001V21.9001C15.8133 22.5234 15.3 23.0001 14.7133 23.0001ZM10.3867 20.8001H13.5767V14.2001H10.3867V20.8001Z" fill="#F8F8FF"/>
</g>
<defs>
<clipPath id="clip0">
<rect x="1" y="1" width="22" height="22" fill="white"/>
</clipPath>
</defs>
</svg>
