<svg width="24" height="24" viewBox="0 0 24 24" fill="none" xmlns="http://www.w3.org/2000/svg">
<path d="M21.9 23H2.1C1.47667 23 1 22.5241 1 21.9018V2.09817C1 1.47587 1.47667 1 2.1 1H21.9C22.5233 1 23 1.47587 23 2.09817V21.9018C23 22.4875 22.5233 23 21.9 23ZM3.2 20.8037H20.8V3.19634H3.2V20.8037Z" fill="#F8F8FF"/>
<path d="M2.1 23C1.80667 23 1.55 22.8902 1.33 22.6705C0.89 22.2312 0.89 21.5357 1.33 21.1331L14.4567 7.99165C14.8233 7.62559 15.3367 7.55238 15.7767 7.80862L21.46 11.0299C21.9733 11.3228 22.1567 11.9817 21.8633 12.5307C21.57 13.0432 20.91 13.2263 20.36 12.9334L15.41 10.1148L2.87 22.6705C2.65 22.8902 2.39333 23 2.1 23Z" fill="#F8F8FF"/>
<path d="M7.74665 11.579C5.65665 11.579 3.93332 9.85858 3.93332 7.73545C3.93332 5.61233 5.65665 3.92847 7.74665 3.92847C9.83665 3.92847 11.5967 5.64893 11.5967 7.77206C11.5967 9.85858 9.87332 11.579 7.74665 11.579ZM7.74665 6.12481C6.86665 6.12481 6.13332 6.85692 6.13332 7.73545C6.13332 8.6506 6.86665 9.38271 7.78332 9.38271C8.69999 9.38271 9.43332 8.6506 9.43332 7.73545C9.39665 6.85692 8.66332 6.12481 7.74665 6.12481Z" fill="#F8F8FF"/>
</svg>
