<svg width="24" height="24" viewBox="0 0 24 24" fill="none" xmlns="http://www.w3.org/2000/svg">
<g clip-path="url(#clip0)">
<path d="M20.5433 22H3.45667C2.1 22 1 20.8867 1 19.5137V11.498C1 10.8672 1.47667 10.3848 2.1 10.3848H7.41667C8.04 10.3848 8.51667 10.8672 8.51667 11.498C8.51667 13.4277 10.0567 15.0234 12 15.0234C13.9433 15.0234 15.4833 13.4648 15.4833 11.498C15.4833 10.8672 15.96 10.3848 16.5833 10.3848H21.9C22.5233 10.3848 23 10.8672 23 11.498V19.5508C23 20.8867 21.9 22 20.5433 22ZM3.2 12.6113V19.5508C3.2 19.6992 3.31 19.8105 3.45667 19.8105H20.5433C20.69 19.8105 20.8 19.6992 20.8 19.5508V12.6113H17.5733C17.06 15.2461 14.75 17.25 12 17.25C9.25 17.25 6.94 15.2461 6.42667 12.6113H3.2Z" fill="#F8F8FF"/>
<path d="M21.9 12.6113C21.4233 12.6113 20.9833 12.3145 20.8367 11.832L18.8933 5.22656H5.10668L3.16335 11.7949C2.98002 12.3887 2.39335 12.7227 1.80668 12.5371C1.22002 12.3516 0.890018 11.7207 1.07335 11.1641L3.27335 3.7793C3.38335 3.33398 3.82335 3 4.30002 3H19.7C20.1767 3 20.6167 3.33398 20.7633 3.7793L22.9633 11.1641C23.1467 11.7578 22.8167 12.3887 22.23 12.5371C22.12 12.5742 22.01 12.6113 21.9 12.6113Z" fill="#F8F8FF"/>
</g>
<defs>
<clipPath id="clip0">
<rect x="1" y="3" width="22" height="19" fill="white"/>
</clipPath>
</defs>
</svg>
