<svg width="24" height="24" viewBox="0 0 24 24" fill="none" xmlns="http://www.w3.org/2000/svg">
<path d="M12 23C5.95 23 1 18.05 1 12C1 5.95 5.95 1 12 1C18.05 1 23 5.95 23 12C23 18.05 18.05 23 12 23ZM12 3.2C7.16 3.2 3.2 7.16 3.2 12C3.2 16.84 7.16 20.8 12 20.8C16.84 20.8 20.8 16.84 20.8 12C20.8 7.16 16.84 3.2 12 3.2Z" fill="#F8F8FF"/>
<path d="M12 18.6733C11.3767 18.6733 10.9 18.1966 10.9 17.5733V11.2666C10.9 10.6433 11.3767 10.1666 12 10.1666C12.6233 10.1666 13.1 10.6433 13.1 11.2666V17.5733C13.1 18.1966 12.6233 18.6733 12 18.6733Z" fill="#F8F8FF"/>
<path d="M12 8.55333C11.3767 8.55333 10.9 8.07666 10.9 7.45333V6.42666C10.9 5.80333 11.3767 5.32666 12 5.32666C12.6233 5.32666 13.1 5.80333 13.1 6.42666V7.45333C13.1 8.07666 12.5867 8.55333 12 8.55333Z" fill="#F8F8FF"/>
</svg>
