<svg width="24" height="24" viewBox="0 0 24 24" fill="none" xmlns="http://www.w3.org/2000/svg">
<path d="M12 17.7288C8.84668 17.7288 6.24335 15.1664 6.24335 11.9817C6.24335 8.79702 8.81001 6.23462 12 6.23462C15.19 6.23462 17.7567 8.79702 17.7567 11.9817C17.7567 15.1664 15.19 17.7288 12 17.7288ZM12 8.43096C10.0567 8.43096 8.44335 10.005 8.44335 11.9817C8.44335 13.9584 10.02 15.5325 12 15.5325C13.98 15.5325 15.5567 13.9584 15.5567 11.9817C15.5567 10.005 13.9433 8.43096 12 8.43096Z" fill="#F8F8FF"/>
<path d="M18.0133 23H6.02333C3.23667 23 1 20.7305 1 17.985V6.01498C1 3.23295 3.23667 1 6.02333 1H18.0133C20.7633 1 23 3.23295 23 6.01498V17.985C23 20.7305 20.7633 23 18.0133 23ZM6.02333 3.19634C4.44667 3.19634 3.2 4.44093 3.2 6.01498V17.985C3.2 19.5225 4.44667 20.8037 6.02333 20.8037H18.0133C19.5533 20.8037 20.8367 19.5591 20.8367 17.985V6.01498C20.8 4.44093 19.5533 3.19634 18.0133 3.19634H6.02333Z" fill="#F8F8FF"/>
</svg>
