<svg width="24" height="24" viewBox="0 0 24 24" fill="none" xmlns="http://www.w3.org/2000/svg">
<path d="M18.8653 3.25256H9.78725C9.14422 3.25256 8.6525 2.76451 8.6525 2.12628C8.6525 1.48805 9.14422 1 9.78725 1H18.8653C19.5083 1 20 1.48805 20 2.12628C20 2.76451 19.5083 3.25256 18.8653 3.25256Z" fill="#F8F8FF"/>
<path d="M14.2128 23H5.13475C4.49173 23 4 22.5119 4 21.8737C4 21.2355 4.49173 20.7474 5.13475 20.7474H14.2128C14.8558 20.7474 15.3475 21.2355 15.3475 21.8737C15.3475 22.5119 14.8558 23 14.2128 23Z" fill="#F8F8FF"/>
<path d="M10.3546 23C10.279 23 10.2411 23 10.1655 23C9.56029 22.8874 9.14422 22.3242 9.25769 21.686L12.5863 2.46418C12.6998 1.8635 13.2671 1.45053 13.9102 1.56316C14.5154 1.67578 14.9315 2.23892 14.818 2.87715L11.4894 22.099C11.3759 22.6246 10.8842 23 10.3546 23Z" fill="#F8F8FF"/>
</svg>
