<svg width="24" height="24" viewBox="0 0 24 24" fill="none" xmlns="http://www.w3.org/2000/svg">
<g clip-path="url(#clip0)">
<path d="M12.0318 13.0564C11.8861 13.0564 11.7768 13.02 11.631 12.9835L1.75597 8.9752C1.35514 8.82944 1.10007 8.42861 1.10007 8.02778C1.10007 7.62695 1.35514 7.22612 1.75597 7.08036L11.6675 3.07204C11.9225 2.96272 12.1776 2.96272 12.4327 3.07204L22.3442 7.04392C22.745 7.18968 23.0001 7.59051 23.0001 7.99134C23.0001 8.39217 22.745 8.793 22.3442 8.93876L12.4327 12.9835C12.2869 13.02 12.1776 13.0564 12.0318 13.0564ZM4.92619 8.02778L12.0318 10.87L19.1375 7.99134L12.0318 5.14908L4.92619 8.02778Z" fill="#F8F8FF"/>
<path d="M12.0318 17.5028C11.8861 17.5028 11.7768 17.4664 11.631 17.4299L1.75596 13.4216C1.20937 13.203 0.954297 12.5835 1.17293 12.0733C1.39157 11.5268 1.9746 11.2717 2.52119 11.4903L12.0318 15.3164L21.5425 11.4903C22.0891 11.2717 22.6721 11.5268 22.8907 12.0733C23.1094 12.6199 22.8543 13.203 22.3077 13.4216L12.4327 17.4299C12.3233 17.4664 12.1776 17.5028 12.0318 17.5028Z" fill="#F8F8FF"/>
<path d="M12.0318 21.6569C11.8861 21.6569 11.7768 21.6205 11.631 21.584L1.75596 17.6121C1.20937 17.3935 0.954297 16.774 1.17293 16.2639C1.39157 15.7173 1.9746 15.4622 2.52119 15.6809L12.0318 19.507L21.5425 15.6809C22.0891 15.4622 22.6721 15.7173 22.8907 16.2639C23.1094 16.8105 22.8543 17.3935 22.3077 17.6121L12.4327 21.584C12.3233 21.6569 12.1776 21.6569 12.0318 21.6569Z" fill="#F8F8FF"/>
</g>
<defs>
<clipPath id="clip0">
<rect x="1.10001" y="3" width="21.9" height="18.6569" fill="white"/>
</clipPath>
</defs>
</svg>
