<svg width="24" height="24" viewBox="0 0 24 24" fill="none" xmlns="http://www.w3.org/2000/svg">
<g clip-path="url(#clip0)">
<path d="M19.9933 23.0683H4.00667C2.35667 23.0683 1 21.7117 1 20.0617V4.03834C1 2.38834 2.35667 1.03168 4.00667 1.03168H20.03C21.68 1.03168 23 2.38834 23 4.03834V20.0617C23 21.7117 21.68 23.0683 19.9933 23.0683ZM4.00667 3.23168C3.56667 3.23168 3.2 3.59834 3.2 4.03834V20.0617C3.2 20.5017 3.56667 20.8683 4.00667 20.8683H20.03C20.47 20.8683 20.8367 20.5017 20.8367 20.0617V4.03834C20.8 3.59834 20.47 3.23168 19.9933 3.23168H4.00667Z" fill="#F8F8FF"/>
<path d="M21.3867 9.02501H2.61337C1.99003 9.02501 1.51337 8.54835 1.51337 7.92501C1.51337 7.30168 1.99003 6.82501 2.61337 6.82501H21.3867C22.01 6.82501 22.4867 7.30168 22.4867 7.92501C22.4867 8.54835 22.01 9.02501 21.3867 9.02501Z" fill="#F8F8FF"/>
<path d="M8.48 22.5183C7.85667 22.5183 7.38 22.0416 7.38 21.4183V8.14498C7.38 7.52165 7.85667 7.04498 8.48 7.04498C9.10334 7.04498 9.58 7.52165 9.58 8.14498V21.4183C9.58 22.0416 9.10334 22.5183 8.48 22.5183Z" fill="#F8F8FF"/>
</g>
<defs>
<clipPath id="clip0">
<rect x="1" y="1.03168" width="22" height="22.0367" fill="white"/>
</clipPath>
</defs>
</svg>
