<svg width="24" height="24" viewBox="0 0 24 24" fill="none" xmlns="http://www.w3.org/2000/svg">
<g clip-path="url(#clip0)">
<path d="M6.87781 23C5.36637 23 3.96288 22.4242 2.91927 21.3446C1.87565 20.301 1.29987 18.8975 1.29987 17.422C1.29987 15.9106 1.87565 14.5071 2.95526 13.4635L5.72623 10.6925C6.15807 10.2607 6.84182 10.2607 7.23768 10.6925C7.66952 11.1244 7.66952 11.8081 7.23768 12.204L4.4667 14.9749C3.81894 15.6227 3.45907 16.4864 3.45907 17.422C3.45907 18.3577 3.81894 19.1854 4.4667 19.8691C5.11446 20.5169 5.97814 20.8768 6.9138 20.8768C7.81346 20.8768 8.67715 20.5169 9.36089 19.8691L12.8876 16.3424C14.2191 15.0109 14.2191 12.8157 12.8876 11.4842C12.5997 11.1963 12.2398 10.9444 11.88 10.7645C11.3402 10.5126 11.0883 9.86482 11.3402 9.32502C11.5921 8.78522 12.2398 8.53331 12.7796 8.78522C13.3914 9.07311 13.9672 9.43298 14.435 9.93679C16.6302 12.132 16.6302 15.6587 14.435 17.8539L10.9083 21.3806C9.79274 22.4242 8.38925 23 6.87781 23Z" fill="#F8F8FF"/>
<path d="M12.0239 15.6227C11.88 15.6227 11.736 15.5867 11.5921 15.5148C10.9803 15.2269 10.4045 14.867 9.9367 14.3632C8.89309 13.3196 8.28131 11.9161 8.28131 10.4046C8.28131 8.8932 8.8571 7.48972 9.9367 6.4461L13.4634 2.9194C15.6586 0.724213 19.1853 0.724213 21.3805 2.9194C23.5757 5.11459 23.5757 8.64129 21.3805 10.8365L18.6095 13.6075C18.1777 14.0393 17.4939 14.0393 17.0981 13.6075C16.6662 13.1756 16.6662 12.4919 17.0981 12.096L19.869 9.32504C21.2005 7.99353 21.2005 5.79834 19.869 4.46683C18.5375 3.13532 16.3423 3.13532 15.0108 4.46683L11.4841 7.99353C10.8364 8.64129 10.4765 9.50498 10.4765 10.4406C10.4765 11.3763 10.8364 12.204 11.4841 12.8877C11.772 13.1756 12.1319 13.4275 12.4918 13.6075C13.0316 13.8594 13.2835 14.5071 13.0316 15.0469C12.8156 15.4068 12.4198 15.6227 12.0239 15.6227Z" fill="#F8F8FF"/>
</g>
<defs>
<clipPath id="clip0">
<rect x="1.29999" y="1.29999" width="21.7" height="21.7" fill="white"/>
</clipPath>
</defs>
</svg>
