<svg width="24" height="24" viewBox="0 0 24 24" fill="none" xmlns="http://www.w3.org/2000/svg">
<g clip-path="url(#clip0)">
<path d="M21.8931 23.0684H18.0561C17.4289 23.0684 16.9492 22.5888 16.9492 21.9616V11.631C16.9492 11.0407 16.4696 10.5242 15.8424 10.5242C15.2152 10.5242 14.7355 11.0038 14.7355 11.631V21.9616C14.7355 22.5888 14.2559 23.0684 13.6287 23.0684H9.82852C9.20131 23.0684 8.72168 22.5888 8.72168 21.9616V11.3359C8.72168 7.38813 11.9315 4.17828 15.8793 4.17828C19.827 4.17828 23.0369 7.38813 23.0369 11.3359V21.9616C23 22.5519 22.5203 23.0684 21.8931 23.0684ZM19.1629 20.8547H20.7863V11.3359C20.7863 8.60566 18.5726 6.39197 15.8424 6.39197C13.1122 6.39197 10.8985 8.60566 10.8985 11.3359V20.8547H12.5218V11.631C12.5218 9.82319 13.9976 8.3105 15.8424 8.3105C17.6502 8.3105 19.1629 9.7863 19.1629 11.631V20.8547Z" fill="#F8F8FF"/>
<path d="M5.84393 23.0685H2.00687C1.37966 23.0685 0.900024 22.5888 0.900024 21.9616V8.75327C0.900024 8.12606 1.37966 7.64642 2.00687 7.64642H5.84393C6.47114 7.64642 6.95078 8.12606 6.95078 8.75327V21.9616C6.95078 22.5519 6.47114 23.0685 5.84393 23.0685ZM3.11371 20.8548H4.73709V9.86011H3.11371V20.8548Z" fill="#F8F8FF"/>
<path d="M3.9254 6.98233C2.26513 6.98233 0.900024 5.61722 0.900024 3.95695C0.900024 2.29669 2.26513 0.93158 3.9254 0.93158C5.58567 0.93158 6.95078 2.29669 6.95078 3.95695C6.95078 5.61722 5.58567 6.98233 3.9254 6.98233ZM3.9254 3.14527C3.48266 3.14527 3.11371 3.51422 3.11371 3.95695C3.11371 4.39969 3.48266 4.76864 3.9254 4.76864C4.36814 4.76864 4.73709 4.39969 4.73709 3.95695C4.73709 3.51422 4.36814 3.14527 3.9254 3.14527Z" fill="#F8F8FF"/>
</g>
<defs>
<clipPath id="clip0">
<rect x="0.900024" y="0.93158" width="22.1" height="22.1369" fill="white"/>
</clipPath>
</defs>
</svg>
