<svg width="24" height="24" viewBox="0 0 24 24" fill="none" xmlns="http://www.w3.org/2000/svg">
<path d="M3.16333 20H2.1C1.47667 20 1 19.5094 1 18.8679C1 18.2264 1.47667 17.7358 2.1 17.7358H3.16333C3.78667 17.7358 4.26333 18.2264 4.26333 18.8679C4.26333 19.5094 3.78667 20 3.16333 20Z" fill="#F8F8FF"/>
<path d="M3.16333 13.1321H2.1C1.47667 13.1321 1 12.6415 1 12C1 11.3585 1.47667 10.8679 2.1 10.8679H3.16333C3.78667 10.8679 4.26333 11.3585 4.26333 12C4.26333 12.6415 3.78667 13.1321 3.16333 13.1321Z" fill="#F8F8FF"/>
<path d="M3.16333 6.26415H2.1C1.47667 6.26415 1 5.77358 1 5.13208C1 4.49057 1.47667 4 2.1 4H3.16333C3.78667 4 4.26333 4.49057 4.26333 5.13208C4.26333 5.77358 3.78667 6.26415 3.16333 6.26415Z" fill="#F8F8FF"/>
<path d="M7.30667 20C6.68333 20 6.20667 19.5094 6.20667 18.8679C6.20667 18.2264 6.68333 17.7358 7.30667 17.7358H21.9C22.5233 17.7358 23 18.2264 23 18.8679C23 19.5094 22.5233 20 21.9 20H7.30667C7.34333 20 7.34333 20 7.30667 20Z" fill="#F8F8FF"/>
<path d="M7.30667 13.1321C6.68333 13.1321 6.20667 12.6415 6.20667 12C6.20667 11.3585 6.68333 10.8679 7.30667 10.8679H21.9C22.5233 10.8679 23 11.3585 23 12C23 12.6415 22.5233 13.1321 21.9 13.1321H7.30667C7.34333 13.1321 7.34333 13.1321 7.30667 13.1321Z" fill="#F8F8FF"/>
<path d="M7.30667 6.26415C6.68333 6.26415 6.20667 5.77358 6.20667 5.13208C6.20667 4.49057 6.68333 4 7.30667 4H21.9C22.5233 4 23 4.49057 23 5.13208C23 5.77358 22.5233 6.26415 21.9 6.26415H7.30667C7.34333 6.26415 7.34333 6.26415 7.30667 6.26415Z" fill="#F8F8FF"/>
</svg>
