<svg width="24" height="24" viewBox="0 0 24 24" fill="none" xmlns="http://www.w3.org/2000/svg">
<g clip-path="url(#clip0)">
<path d="M5.92744 13.1715H2.10316C1.47804 13.1715 1 12.6935 1 12.0684C1 11.4432 1.47804 10.9652 2.10316 10.9652H5.92744C6.55257 10.9652 7.0306 11.4432 7.0306 12.0684C7.0306 12.6935 6.55257 13.1715 5.92744 13.1715Z" fill="#F8F8FF"/>
<path d="M21.9968 13.1715H18.1725C17.5474 13.1715 17.0694 12.6935 17.0694 12.0684C17.0694 11.4432 17.5474 10.9652 18.1725 10.9652H21.9968C22.6219 10.9652 23.1 11.4432 23.1 12.0684C23.1 12.6935 22.6219 13.1715 21.9968 13.1715Z" fill="#F8F8FF"/>
<path d="M5.00816 20.195C4.71398 20.195 4.45658 20.0846 4.23595 19.864C3.79468 19.4227 3.79468 18.7241 4.23595 18.3196L6.95707 15.5985C7.39834 15.1572 8.097 15.1572 8.50149 15.5985C8.94276 16.0397 8.94276 16.7384 8.50149 17.1429L5.78037 19.864C5.59651 20.0846 5.30233 20.195 5.00816 20.195Z" fill="#F8F8FF"/>
<path d="M16.3707 8.83246C16.0765 8.83246 15.8191 8.72214 15.5985 8.50151C15.1572 8.06025 15.1572 7.36158 15.5985 6.95709L18.6138 3.94179C19.055 3.50052 19.7537 3.50052 20.1582 3.94179C20.5995 4.38305 20.5995 5.08172 20.1582 5.48621L17.1797 8.50151C16.959 8.72214 16.6649 8.83246 16.3707 8.83246Z" fill="#F8F8FF"/>
<path d="M12.0683 7.0306C11.4432 7.0306 10.9652 6.55257 10.9652 5.92744V2.10316C10.9652 1.47804 11.4432 1 12.0683 1C12.6935 1 13.1715 1.47804 13.1715 2.10316V5.92744C13.1715 6.55257 12.6567 7.0306 12.0683 7.0306Z" fill="#F8F8FF"/>
<path d="M12.0683 23.1C11.4432 23.1 10.9652 22.622 10.9652 21.9968V18.1726C10.9652 17.5474 11.4432 17.0694 12.0683 17.0694C12.6935 17.0694 13.1715 17.5474 13.1715 18.1726V21.9968C13.1715 22.622 12.6567 23.1 12.0683 23.1Z" fill="#F8F8FF"/>
<path d="M19.0918 20.195C18.7976 20.195 18.5402 20.0847 18.3196 19.864L15.5985 17.1797C15.1572 16.7384 15.1572 16.0398 15.5985 15.6353C16.0397 15.194 16.7384 15.194 17.1429 15.6353L19.864 18.3564C20.3053 18.7977 20.3053 19.4963 19.864 19.9008C19.6434 20.0847 19.386 20.195 19.0918 20.195Z" fill="#F8F8FF"/>
<path d="M7.72928 8.83241C7.43511 8.83241 7.1777 8.7221 6.95707 8.50146L4.23595 5.78034C3.79468 5.33908 3.79468 4.64041 4.23595 4.23592C4.67721 3.79465 5.37588 3.79465 5.78037 4.23592L8.50149 6.95704C8.94276 7.39831 8.94276 8.09697 8.50149 8.50146C8.28086 8.7221 8.02346 8.83241 7.72928 8.83241Z" fill="#F8F8FF"/>
</g>
<defs>
<clipPath id="clip0">
<rect x="1" y="1" width="22.1" height="22.1" fill="white"/>
</clipPath>
</defs>
</svg>
