<svg width="24" height="24" viewBox="0 0 24 24" fill="none" xmlns="http://www.w3.org/2000/svg">
<g clip-path="url(#clip0)">
<path d="M18.2429 23.0683H5.75707C4.79867 23.0683 4 21.9683 4 20.6483V13.3516C4 11.995 4.79867 10.9316 5.75707 10.9316H18.2429C19.2013 10.9316 20 12.0316 20 13.3516V20.6483C19.9734 21.9683 19.2013 23.0683 18.2429 23.0683ZM5.75707 13.1316C5.6772 13.1316 5.59734 13.2416 5.59734 13.3516V20.6483C5.59734 20.7583 5.6772 20.8683 5.75707 20.8683H18.2429C18.3228 20.8683 18.4027 20.7583 18.4027 20.6483V13.3516C18.4027 13.2416 18.3228 13.1316 18.2429 13.1316H5.75707Z" fill="#F8F8FF"/>
<path d="M16.8766 12.1783C16.2533 12.1783 15.7766 11.7017 15.7766 11.0783V7.00834C15.7766 4.91834 14.09 3.23168 12 3.23168C9.90998 3.23168 8.22332 4.91834 8.22332 7.00834V11.0783C8.22332 11.7017 7.74665 12.1783 7.12332 12.1783C6.49998 12.1783 6.02332 11.7017 6.02332 11.0783V7.00834C6.02332 3.70834 8.69998 1.03168 12 1.03168C15.3 1.03168 17.9766 3.70834 17.9766 7.00834V11.0783C17.9766 11.665 17.5 12.1783 16.8766 12.1783Z" fill="#F8F8FF"/>
</g>
<defs>
<clipPath id="clip0">
<rect x="1" y="1.03168" width="22" height="22.0367" fill="white"/>
</clipPath>
</defs>
</svg>
