<svg width="24" height="24" viewBox="0 0 24 24" fill="none" xmlns="http://www.w3.org/2000/svg">
<g clip-path="url(#clip0)">
<path d="M2.13481 6.09666C1.69554 6.09666 1.29288 5.83999 1.10985 5.39999C0.890217 4.84999 1.14646 4.22666 1.73215 3.96999L8.68722 1.07332C8.98007 0.963323 9.30952 0.963323 9.60236 1.10999L14.9102 3.78666L21.426 1.07332C21.9751 0.853323 22.634 1.10999 22.8536 1.65999C23.0732 2.20999 22.817 2.86999 22.2679 3.08999L15.3128 5.98666C15.02 6.09666 14.6906 6.09666 14.3977 5.94999L9.05328 3.30999L2.57408 6.02332C2.42766 6.05999 2.28123 6.09666 2.13481 6.09666Z" fill="#F8F8FF"/>
<path d="M2.09818 23C1.65891 23 1.25625 22.7433 1.07322 22.3033C0.853589 21.7533 1.10983 21.0933 1.65891 20.8733L8.65059 17.9766C8.94344 17.8666 9.27289 17.8666 9.56573 18.0133L14.9468 20.69L21.4626 17.9766C22.0117 17.7566 22.6706 18.0133 22.8902 18.5633C23.1098 19.1133 22.8536 19.7733 22.3045 19.9933L15.3128 22.89C15.02 23 14.6905 23 14.3977 22.8533L9.05326 20.2133L2.53745 22.9266C2.39103 22.9633 2.2446 23 2.09818 23Z" fill="#F8F8FF"/>
<path d="M9.08987 20.0667C8.46757 20.0667 7.9917 19.59 7.9917 18.9667V2.1C7.9917 1.47667 8.46757 1 9.08987 1C9.71216 1 10.188 1.47667 10.188 2.1V18.9667C10.188 19.5533 9.71216 20.0667 9.08987 20.0667Z" fill="#F8F8FF"/>
<path d="M21.8652 20.0667C21.2429 20.0667 20.7671 19.59 20.7671 18.9667V2.1C20.7671 1.47667 21.2429 1 21.8652 1C22.4875 1 22.9634 1.47667 22.9634 2.1V18.9667C22.9634 19.5533 22.4509 20.0667 21.8652 20.0667Z" fill="#F8F8FF"/>
<path d="M2.13479 22.9633C1.51249 22.9633 1.03662 22.4867 1.03662 21.8633V4.99667C1.03662 4.37333 1.51249 3.89667 2.13479 3.89667C2.75709 3.89667 3.23296 4.37333 3.23296 4.99667V21.8633C3.23296 22.45 2.72048 22.9633 2.13479 22.9633Z" fill="#F8F8FF"/>
<path d="M14.8735 22.9633C14.2512 22.9633 13.7754 22.4867 13.7754 21.8633V4.99667C13.7754 4.37333 14.2512 3.89667 14.8735 3.89667C15.4958 3.89667 15.9717 4.37333 15.9717 4.99667V21.8633C15.9717 22.45 15.4958 22.9633 14.8735 22.9633Z" fill="#F8F8FF"/>
</g>
<defs>
<clipPath id="clip0">
<rect x="1" y="1" width="22" height="22" fill="white"/>
</clipPath>
</defs>
</svg>
