<svg width="24" height="24" viewBox="0 0 24 24" fill="none" xmlns="http://www.w3.org/2000/svg">
<path d="M20.8304 11.1228C20.1676 11.1228 19.6608 10.616 19.6608 9.95322V4.33918H14.0468C13.384 4.33918 12.8772 3.83236 12.8772 3.16959C12.8772 2.50682 13.384 2 14.0468 2H20.8304C21.4932 2 22 2.50682 22 3.16959V9.95322C22 10.577 21.4542 11.1228 20.8304 11.1228Z" fill="#F8F8FF"/>
<path d="M3.16959 11.1228C2.50682 11.1228 2 10.616 2 9.95322V3.16959C2 2.50682 2.50682 2 3.16959 2H9.95322C10.616 2 11.1228 2.50682 11.1228 3.16959C11.1228 3.83236 10.616 4.33918 9.95322 4.33918H4.33918V9.95322C4.33918 10.577 3.83236 11.1228 3.16959 11.1228Z" fill="#F8F8FF"/>
<path d="M9.95322 22H3.16959C2.50682 22 2 21.4932 2 20.8304V14.0468C2 13.384 2.50682 12.8772 3.16959 12.8772C3.83236 12.8772 4.33918 13.384 4.33918 14.0468V19.6608H9.95322C10.616 19.6608 11.1228 20.1676 11.1228 20.8304C11.1228 21.4932 10.577 22 9.95322 22Z" fill="#F8F8FF"/>
<path d="M20.8304 22H14.0468C13.384 22 12.8772 21.4932 12.8772 20.8304C12.8772 20.1676 13.384 19.6608 14.0468 19.6608H19.6608V14.0468C19.6608 13.384 20.1676 12.8772 20.8304 12.8772C21.4932 12.8772 22 13.384 22 14.0468V20.8304C22 21.4932 21.4542 22 20.8304 22Z" fill="#F8F8FF"/>
</svg>
