<svg width="24" height="24" viewBox="0 0 24 24" fill="none" xmlns="http://www.w3.org/2000/svg">
<g clip-path="url(#clip0)">
<path d="M15.3475 23H8.69029C8.04727 23 7.55554 22.5242 7.55554 21.9019C7.55554 21.2796 8.04727 20.8037 8.69029 20.8037H15.3475C15.9905 20.8037 16.4823 21.2796 16.4823 21.9019C16.4823 22.5242 15.9527 23 15.3475 23Z" fill="#F8F8FF"/>
<path d="M12.0189 23C11.3759 23 10.8842 22.5241 10.8842 21.9018V18.8269C10.8842 18.2046 11.3759 17.7288 12.0189 17.7288C12.6619 17.7288 13.1537 18.2046 13.1537 18.8269V21.9018C13.1537 22.5241 12.6241 23 12.0189 23Z" fill="#F8F8FF"/>
<path d="M12.0189 19.9252C7.59338 19.9252 4 16.4476 4 12.1648V10.005C4 9.38273 4.49173 8.90686 5.13475 8.90686C5.77778 8.90686 6.2695 9.38273 6.2695 10.005V12.1648C6.2695 15.2396 8.84161 17.7288 12.0189 17.7288C15.1962 17.7288 17.7683 15.2396 17.7683 12.1648V10.005C17.7683 9.38273 18.26 8.90686 18.9031 8.90686C19.5461 8.90686 20.0378 9.38273 20.0378 10.005V12.1648C20 16.4476 16.4066 19.9252 12.0189 19.9252Z" fill="#F8F8FF"/>
<path d="M12.0189 16.411C9.82506 16.411 8.00946 14.6539 8.00946 12.5308V5.9418C8.00946 5.3195 8.50119 4.84363 9.14421 4.84363C9.78724 4.84363 10.279 5.3195 10.279 5.9418V12.5308C10.279 13.446 11.0733 14.2147 12.0189 14.2147C12.9645 14.2147 13.7589 13.446 13.7589 12.5308V5.9418C13.7589 5.3195 14.2506 4.84363 14.8936 4.84363C15.5366 4.84363 16.0284 5.3195 16.0284 5.9418V12.5308C16.0284 14.6539 14.2128 16.411 12.0189 16.411Z" fill="#F8F8FF"/>
<path d="M14.8936 12.5674C14.2506 12.5674 13.7589 12.0915 13.7589 11.4692V4.8802C13.7589 3.96506 12.9645 3.19634 12.0189 3.19634C11.0733 3.19634 10.279 3.96506 10.279 4.8802V11.4692C10.279 12.0915 9.78724 12.5674 9.14421 12.5674C8.50119 12.5674 8.00946 12.0915 8.00946 11.4692V4.8802C8.00946 2.75707 9.78724 1 12.0189 1C14.2506 1 16.0284 2.75707 16.0284 4.8802V11.4692C16.0284 12.0915 15.4988 12.5674 14.8936 12.5674Z" fill="#F8F8FF"/>
</g>
<defs>
<clipPath id="clip0">
<rect x="4" y="1" width="16" height="22" fill="white"/>
</clipPath>
</defs>
</svg>
