<svg width="24" height="24" viewBox="0 0 24 24" fill="none" xmlns="http://www.w3.org/2000/svg">
<path d="M8.46755 23C7.84526 23 7.36938 22.5233 7.36938 21.9V16.6567H2.09817C1.47587 16.6567 1 16.18 1 15.5567C1 14.9333 1.47587 14.4567 2.09817 14.4567H8.46755C9.08985 14.4567 9.56572 14.9333 9.56572 15.5567V21.9C9.56572 22.5233 9.05324 23 8.46755 23Z" fill="#F8F8FF"/>
<path d="M8.46755 9.58H2.09817C1.47587 9.58 1 9.10333 1 8.48C1 7.85667 1.47587 7.38 2.09817 7.38H7.36938V2.1C7.36938 1.47667 7.84526 1 8.46755 1C9.08985 1 9.56572 1.47667 9.56572 2.1V8.48C9.56572 9.06667 9.05324 9.58 8.46755 9.58Z" fill="#F8F8FF"/>
<path d="M21.9018 9.58H15.5324C14.9101 9.58 14.4343 9.10333 14.4343 8.48V2.1C14.4343 1.47667 14.9101 1 15.5324 1C16.1547 1 16.6306 1.47667 16.6306 2.1V7.38H21.9018C22.5241 7.38 23 7.85667 23 8.48C23 9.10333 22.4875 9.58 21.9018 9.58Z" fill="#F8F8FF"/>
<path d="M15.5324 23C14.9101 23 14.4343 22.5233 14.4343 21.9V15.5567C14.4343 14.9333 14.9101 14.4567 15.5324 14.4567H21.9018C22.5241 14.4567 23 14.9333 23 15.5567C23 16.18 22.5241 16.6567 21.9018 16.6567H16.6306V21.9C16.6306 22.5233 16.1181 23 15.5324 23Z" fill="#F8F8FF"/>
</svg>
