<svg width="24" height="24" viewBox="0 0 24 24" fill="none" xmlns="http://www.w3.org/2000/svg">
<path d="M12 21.9999C11.3767 21.9999 10.9 21.5306 10.9 20.9169V17.8844C10.9 17.2707 11.3767 16.8014 12 16.8014C12.6234 16.8014 13.1 17.2707 13.1 17.8844V20.9169C13.1 21.5306 12.6234 21.9999 12 21.9999Z" fill="#F8F8FF"/>
<path d="M20.8 18.1372H3.23667C2.02667 18.1372 1 17.1625 1 15.935V4.20217C1 2.97473 1.99 2 3.23667 2H20.8C22.01 2 23 2.97473 23 4.20217V15.935C23 17.1264 22.01 18.1372 20.8 18.1372ZM3.23667 4.16606L3.2 15.935L20.8 15.9711V4.20217V4.16606H3.23667Z" fill="#F8F8FF"/>
<path d="M15.2267 21.9999H8.77334C8.15001 21.9999 7.67334 21.5306 7.67334 20.9169C7.67334 20.3032 8.15001 19.8339 8.77334 19.8339H15.2267C15.85 19.8339 16.3267 20.3032 16.3267 20.9169C16.3267 21.5306 15.85 21.9999 15.2267 21.9999Z" fill="#F8F8FF"/>
</svg>
