<svg width="24" height="24" viewBox="0 0 24 24" fill="none" xmlns="http://www.w3.org/2000/svg">
<g clip-path="url(#clip0)">
<path d="M12 23C5.92977 23 1 18.0702 1 12C1 5.92977 5.92977 1 12 1C12.1472 1 12.2575 1 12.4047 1C12.8462 1 13.2508 1.29431 13.4348 1.73579C13.6187 2.17726 13.4716 2.65552 13.1405 2.94983C11.8896 4.01672 11.1538 5.59866 11.1538 7.25418C11.1538 10.3813 13.6923 12.9197 16.8194 12.9197C18.4749 12.9197 20.0201 12.1839 21.1237 10.9331C21.4181 10.602 21.8963 10.4549 22.3378 10.602C22.7793 10.7492 23.0736 11.1538 23.0736 11.5953C23.0736 11.7425 23.0736 11.8528 23.0736 12C23 18.0702 18.0702 23 12 23ZM9.86622 3.46488C6.04013 4.4214 3.20736 7.8796 3.20736 12C3.20736 16.8562 7.14381 20.7926 12 20.7926C16.1204 20.7926 19.5786 17.9599 20.5351 14.1338C19.3946 14.7592 18.107 15.0903 16.7826 15.0903C12.4415 15.0903 8.9097 11.5585 8.9097 7.21739C8.9097 5.89298 9.2408 4.60535 9.86622 3.46488Z" fill="#F8F8FF"/>
</g>
<defs>
<clipPath id="clip0">
<rect x="1" y="1" width="22" height="22" fill="white"/>
</clipPath>
</defs>
</svg>
