<svg width="24" height="24" viewBox="0 0 24 24" fill="none" xmlns="http://www.w3.org/2000/svg">
<g clip-path="url(#clip0)">
<path d="M18.49 16.5466C18.1967 16.5466 17.94 16.4366 17.72 16.2166C17.28 15.7766 17.28 15.0799 17.72 14.6766L20.36 12.0366L17.72 9.39661C17.28 8.95661 17.28 8.25994 17.72 7.85661C18.16 7.41661 18.8567 7.41661 19.26 7.85661L22.7067 11.3033C22.9267 11.5233 23.0367 11.7799 23.0367 12.0733C23.0367 12.3666 22.9267 12.6599 22.7067 12.8433L19.26 16.2899C19.04 16.4366 18.7467 16.5466 18.49 16.5466Z" fill="#F8F8FF"/>
<path d="M5.54667 16.5466C5.25333 16.5466 4.99667 16.4366 4.77667 16.2166L1.33 12.7699C1.11 12.5866 1 12.2932 1 11.9999C1 11.7066 1.11 11.4132 1.33 11.2299L4.77667 7.78325C5.21667 7.34325 5.91333 7.34325 6.31667 7.78325C6.75667 8.22325 6.75667 8.91991 6.31667 9.32325L3.64 11.9999L6.28 14.6399C6.72 15.0799 6.72 15.7766 6.28 16.1799C6.09667 16.4366 5.80333 16.5466 5.54667 16.5466Z" fill="#F8F8FF"/>
<path d="M21.9 13.0999H2.1C1.47667 13.0999 1 12.6232 1 11.9999C1 11.3766 1.47667 10.8999 2.1 10.8999H21.9C22.5233 10.8999 23 11.3766 23 11.9999C23 12.6232 22.5233 13.0999 21.9 13.0999Z" fill="#F8F8FF"/>
<path d="M15.4467 6.64659C15.1533 6.64659 14.8967 6.53659 14.6767 6.31659L12 3.63992L9.35999 6.27992C8.91999 6.71992 8.22332 6.71992 7.81999 6.27992C7.37999 5.83992 7.37999 5.14326 7.81999 4.73992L11.2667 1.29326C11.7067 0.853257 12.4033 0.853257 12.8067 1.29326L16.2533 4.73992C16.6933 5.17992 16.6933 5.87659 16.2533 6.27992C15.9967 6.53659 15.74 6.64659 15.4467 6.64659Z" fill="#F8F8FF"/>
<path d="M12 22.9999C11.7067 22.9999 11.45 22.8899 11.23 22.6699L7.78334 19.2233C7.34334 18.7833 7.34334 18.0866 7.78334 17.6833C8.22334 17.2433 8.92001 17.2433 9.32334 17.6833L11.9633 20.3233L14.6033 17.6833C15.0433 17.2433 15.74 17.2433 16.1433 17.6833C16.5833 18.1233 16.5833 18.8199 16.1433 19.2233L12.6967 22.6699C12.5867 22.9266 12.2933 22.9999 12 22.9999Z" fill="#F8F8FF"/>
<path d="M12 23C11.3767 23 10.9 22.5233 10.9 21.9V2.1C10.9 1.47667 11.3767 1 12 1C12.6233 1 13.1 1.47667 13.1 2.1V21.9C13.1 22.5233 12.6233 23 12 23Z" fill="#F8F8FF"/>
</g>
<defs>
<clipPath id="clip0">
<rect x="1" y="1" width="22" height="22" fill="white"/>
</clipPath>
</defs>
</svg>
