<svg width="24" height="24" viewBox="0 0 24 24" fill="none" xmlns="http://www.w3.org/2000/svg">
<g clip-path="url(#clip0)">
<path d="M9.17347 22C8.5107 22 8.00388 21.4952 8.00388 20.835V4.99031C8.00388 4.40778 8.43273 3.94176 8.97853 3.82526L20.6355 2.00001C20.9863 1.96118 21.2982 2.03885 21.5711 2.27186C21.844 2.50487 21.961 2.81555 21.961 3.16506V19.0486C21.961 19.7088 21.4542 20.2136 20.7914 20.2136C20.1286 20.2136 19.6218 19.7088 19.6218 19.0486V4.52429L10.3041 5.96118V20.835C10.3431 21.4952 9.79725 22 9.17347 22Z" fill="#F8F8FF"/>
<path d="M20.8304 20.2136H14.8265C14.1637 20.2136 13.6569 19.7088 13.6569 19.0486V15.7087C13.6569 15.0486 14.1637 14.5437 14.8265 14.5437H20.8304C21.4932 14.5437 22 15.0486 22 15.7087V19.0486C22 19.6699 21.4542 20.2136 20.8304 20.2136ZM15.9961 17.8835H19.6608V16.8738H15.9961V17.8835Z" fill="#F8F8FF"/>
<path d="M9.17349 22H3.16959C2.50682 22 2 21.4951 2 20.8349V17.4951C2 16.8349 2.50682 16.3301 3.16959 16.3301H9.17349C9.83626 16.3301 10.3431 16.8349 10.3431 17.4951V20.8349C10.3431 21.4951 9.79727 22 9.17349 22ZM4.33918 19.6699H8.0039V18.6602H4.33918V19.6699Z" fill="#F8F8FF"/>
</g>
<defs>
<clipPath id="clip0">
<rect x="2" y="2" width="20" height="20" fill="white"/>
</clipPath>
</defs>
</svg>
