<svg width="24" height="24" viewBox="0 0 24 24" fill="none" xmlns="http://www.w3.org/2000/svg">
<g clip-path="url(#clip0)">
<path d="M9.68998 23C9.61665 23 9.54332 23 9.46998 22.9633C9.02998 22.89 8.66332 22.5233 8.58998 22.0467L7.70998 16.2533L1.91665 15.3733C1.47665 15.3 1.10998 14.97 0.999984 14.4933C0.926651 14.0533 1.10998 13.5767 1.51332 13.3567L21.3133 1.14665C21.7533 0.889985 22.3033 0.963318 22.67 1.29332C23.0366 1.65998 23.11 2.20998 22.8166 2.64998L10.6067 22.45C10.4233 22.8167 10.0567 23 9.68998 23ZM5.17998 13.6867L8.80998 14.2367C9.28665 14.31 9.65332 14.6767 9.72665 15.1533L10.2767 18.7833L18.49 5.43665L5.17998 13.6867Z" fill="#F8F8FF"/>
</g>
<defs>
<clipPath id="clip0">
<rect x="1" y="1" width="22" height="22" fill="white"/>
</clipPath>
</defs>
</svg>
