<svg width="24" height="24" viewBox="0 0 24 24" fill="none" xmlns="http://www.w3.org/2000/svg">
<g clip-path="url(#clip0)">
<path d="M15.6915 22H8.20851C7.94006 22 7.67161 21.8994 7.50383 21.698L2.202 16.4297C2.00066 16.2284 1.89999 15.96 1.89999 15.6915V8.20854C1.89999 7.94009 2.00066 7.67164 2.202 7.50386L7.50383 2.20203C7.67161 2.00069 7.94006 1.90002 8.20851 1.90002H15.6915C15.9599 1.90002 16.2284 2.00069 16.3962 2.20203L21.698 7.50386C21.8993 7.7052 22 7.94009 22 8.20854V15.6915C22 15.96 21.8993 16.2284 21.698 16.3962L16.4297 21.7316C16.2284 21.8994 15.9599 22 15.6915 22ZM8.61118 19.9867H15.2888L19.9866 15.2888V8.61121L15.2888 3.91338H8.61118L3.91335 8.61121V15.2888L8.61118 19.9867Z" fill="#F8F8FF"/>
</g>
<defs>
<clipPath id="clip0">
<rect x="1.89999" y="1.90002" width="20.1" height="20.1" fill="white"/>
</clipPath>
</defs>
</svg>
