<svg width="24" height="24" viewBox="0 0 24 24" fill="none" xmlns="http://www.w3.org/2000/svg">
<g clip-path="url(#clip0)">
<path d="M12.1677 11.9007C12.0257 11.9007 11.8838 11.8652 11.7773 11.8297L2.12573 7.9265C1.69993 7.78456 1.45154 7.39424 1.45154 6.93295C1.45154 6.47166 1.69993 6.11682 2.12573 5.9394L11.7419 2.07166C11.9902 1.96521 12.2741 1.96521 12.5225 2.07166L22.1741 5.9394C22.5644 6.11682 22.8483 6.50714 22.8483 6.93295C22.8483 7.35876 22.5999 7.74908 22.1741 7.9265L12.558 11.7942C12.4161 11.8652 12.2741 11.9007 12.1677 11.9007ZM5.35476 6.93295L12.1322 9.66521L18.9096 6.93295L12.1677 4.20069L5.35476 6.93295Z" fill="#F8F8FF"/>
<path d="M12.1676 21.8001C12.0257 21.8001 11.8837 21.7646 11.7773 21.7291L2.12567 17.8613C1.73535 17.6839 1.45148 17.2936 1.45148 16.8678V6.93231C1.45148 6.32909 1.91277 5.8678 2.51599 5.8678C3.11922 5.8678 3.58051 6.32909 3.58051 6.93231V16.1226L12.1676 19.5646L20.7547 16.1226V6.93231C20.7547 6.32909 21.216 5.8678 21.8192 5.8678C22.4224 5.8678 22.8837 6.32909 22.8837 6.93231V16.8678C22.8837 17.2936 22.6353 17.6839 22.2095 17.8613L12.5579 21.7291C12.416 21.7646 12.3095 21.8001 12.1676 21.8001Z" fill="#F8F8FF"/>
<path d="M12.1676 21.8C11.5644 21.8 11.1031 21.3387 11.1031 20.7355V10.8C11.1031 10.1968 11.5644 9.73547 12.1676 9.73547C12.7708 9.73547 13.2321 10.1968 13.2321 10.8V20.7355C13.2321 21.3387 12.7353 21.8 12.1676 21.8Z" fill="#F8F8FF"/>
<path d="M17.2063 9.91292C17.0644 9.91292 16.9579 9.87744 16.816 9.84195L7.12891 5.97421C6.59666 5.76131 6.31278 5.1226 6.52569 4.59034C6.77407 4.05808 7.3773 3.77421 7.90956 3.98711L17.5612 7.85486C18.0934 8.06776 18.3773 8.70647 18.1644 9.23873C18.0225 9.66453 17.6321 9.91292 17.2063 9.91292Z" fill="#F8F8FF"/>
</g>
<defs>
<clipPath id="clip0">
<rect x="1.4516" y="2" width="21.3968" height="19.8" fill="white"/>
</clipPath>
</defs>
</svg>
