<svg width="24" height="24" viewBox="0 0 24 24" fill="none" xmlns="http://www.w3.org/2000/svg">
<g clip-path="url(#clip0)">
<path d="M7.10535 22.8991C5.42355 22.8991 3.888 22.2775 2.75461 21.1442C1.5481 19.9011 0.926564 18.2558 0.999685 16.4278C1.10937 14.6729 1.87715 12.9545 3.15678 11.6749L12.2604 2.57122C14.2713 0.560374 17.379 0.450691 19.207 2.27874C21.0351 4.10678 20.9254 7.25102 18.9145 9.22531L9.48181 18.7311C8.89684 19.3161 8.16562 19.6452 7.36128 19.6817C6.52038 19.7183 5.7526 19.4258 5.20419 18.8774C4.0708 17.744 4.14392 15.8063 5.35043 14.5998L15.295 4.65519C15.7337 4.21646 16.4284 4.21646 16.8306 4.65519C17.2693 5.09392 17.2693 5.78858 16.8306 6.19075L6.88599 16.1353C6.52038 16.5009 6.44726 17.0128 6.73975 17.3053C6.88599 17.4515 7.10535 17.4881 7.2516 17.4881C7.50752 17.4881 7.72689 17.3784 7.90969 17.159L17.379 7.68975C18.5124 6.55636 18.6586 4.80144 17.6715 3.81429C16.6843 2.82715 14.9659 2.93683 13.796 4.10678L4.7289 13.247C3.81487 14.161 3.26646 15.331 3.19334 16.574C3.12022 17.744 3.52239 18.8408 4.29017 19.6086C5.05794 20.3764 6.15477 20.7785 7.32472 20.7054C8.53123 20.6323 9.73774 20.0839 10.6518 19.1699L20.2307 9.59091C20.6694 9.15218 21.3641 9.15218 21.7663 9.59091C22.205 10.0296 22.205 10.7243 21.7663 11.1265L12.2239 20.742C10.9077 22.0582 9.22589 22.826 7.47096 22.8991C7.36128 22.8991 7.21504 22.8991 7.10535 22.8991Z" fill="#F8F8FF"/>
</g>
<defs>
<clipPath id="clip0">
<rect x="1" y="1" width="21.1322" height="21.9" fill="white"/>
</clipPath>
</defs>
</svg>
