<svg width="24" height="24" viewBox="0 0 24 24" fill="none" xmlns="http://www.w3.org/2000/svg">
<g clip-path="url(#clip0)">
<path d="M10.09 23.0001H5.65335C5.03001 23.0001 4.55334 22.5234 4.55334 21.9001V2.1C4.55334 1.47667 5.03001 1 5.65335 1H10.09C10.7134 1 11.19 1.47667 11.19 2.1V21.9001C11.19 22.4868 10.6767 23.0001 10.09 23.0001ZM6.75335 20.8001H8.99003V3.20001H6.75335V20.8001Z" fill="#F8F8FF"/>
<path d="M19.1467 23.0001H14.7101C14.0867 23.0001 13.61 22.5234 13.61 21.9001V2.1C13.61 1.47667 14.0867 1 14.7101 1H19.1467C19.7701 1 20.2467 1.47667 20.2467 2.1V21.9001C20.2467 22.4868 19.7701 23.0001 19.1467 23.0001ZM15.8101 20.8001H18.0467V3.20001H15.8101V20.8001Z" fill="#F8F8FF"/>
</g>
<defs>
<clipPath id="clip0">
<rect x="4.55334" y="1" width="15.6934" height="22.0001" fill="white"/>
</clipPath>
</defs>
</svg>
