<svg width="24" height="24" viewBox="0 0 24 24" fill="none" xmlns="http://www.w3.org/2000/svg">
<g clip-path="url(#clip0)">
<path d="M3.8909 22.9091C3.70908 22.9091 3.52726 22.8727 3.34544 22.7636C3.01817 22.5818 2.79999 22.2182 2.79999 21.8182V2.18179C2.79999 1.78179 3.01817 1.41816 3.34544 1.23634C3.67272 1.05452 4.10908 1.05452 4.43635 1.23634L21.4545 11.0545C21.7818 11.2363 22 11.6 22 12C22 12.4 21.7818 12.7636 21.4545 12.9454L4.43635 22.7636C4.25453 22.8727 4.07272 22.9091 3.8909 22.9091ZM4.98181 4.0727V19.9272L18.7273 12L4.98181 4.0727Z" fill="#F8F8FF"/>
</g>
<defs>
<clipPath id="clip0">
<rect x="2.80005" y="1.09094" width="19.2" height="21.8182" fill="white"/>
</clipPath>
</defs>
</svg>
