<svg width="24" height="24" viewBox="0 0 24 24" fill="none" xmlns="http://www.w3.org/2000/svg">
<g clip-path="url(#clip0)">
<path d="M12 16.3583C11.7067 16.3583 11.45 16.2483 11.23 16.0283L4.77666 9.57496C4.33666 9.13496 4.33666 8.43829 4.77666 8.03496C5.21666 7.59496 5.91332 7.59496 6.31666 8.03496L12 13.7183L17.6833 8.03496C18.1233 7.59496 18.82 7.59496 19.2233 8.03496C19.6633 8.47496 19.6633 9.17162 19.2233 9.57496L12.77 16.0283C12.5867 16.2483 12.2933 16.3583 12 16.3583Z" fill="#F8F8FF"/>
<path d="M12 23.0683C5.91333 23.0683 1 18.1183 1 12.0683V4.03828C1 2.38828 2.35667 1.03162 4.00667 1.03162H20.03C21.68 1.03162 23 2.38828 23 4.03828V12.0316C23 18.1183 18.0867 23.0683 12 23.0683ZM4.00667 3.23162C3.56667 3.23162 3.2 3.59828 3.2 4.03828V12.0683C3.2 16.9083 7.16 20.8683 12 20.8683C16.84 20.8683 20.8 16.9083 20.8 12.0683V4.03828C20.8 3.59828 20.47 3.23162 19.9933 3.23162H4.00667Z" fill="#F8F8FF"/>
</g>
<defs>
<clipPath id="clip0">
<rect x="1" y="1.03162" width="22" height="22.0367" fill="white"/>
</clipPath>
</defs>
</svg>
