<svg width="24" height="24" viewBox="0 0 24 24" fill="none" xmlns="http://www.w3.org/2000/svg">
<g clip-path="url(#clip0)">
<path d="M21.0977 17.1142H17.4923C16.9195 17.1142 16.4815 16.6761 16.4815 16.1033C16.4815 15.5305 16.9195 15.0924 17.4923 15.0924H20.0869V8.55554H3.91308V15.0924H6.54132C7.11414 15.0924 7.55218 15.5305 7.55218 16.1033C7.55218 16.6761 7.11414 17.1142 6.54132 17.1142H2.90222C2.3294 17.1142 1.89136 16.6761 1.89136 16.1033V7.54468C1.89136 6.97185 2.3294 6.53381 2.90222 6.53381H21.0977C21.6706 6.53381 22.1086 6.97185 22.1086 7.54468V16.1033C22.1086 16.6424 21.6706 17.1142 21.0977 17.1142Z" fill="#F8F8FF"/>
<path d="M12 8.55559H6.74353C6.17071 8.55559 5.73267 8.11755 5.73267 7.54472V2.99585C5.73267 2.42303 6.17071 1.98499 6.74353 1.98499H12C12.5728 1.98499 13.0109 2.42303 13.0109 2.99585C13.0109 3.56867 12.5728 4.00671 12 4.00671H7.75439V6.53386H12C12.5728 6.53386 13.0109 6.9719 13.0109 7.54472C13.0109 8.11755 12.5728 8.55559 12 8.55559Z" fill="#F8F8FF"/>
<path d="M17.2565 8.55559H12C11.4272 8.55559 10.9891 8.11755 10.9891 7.54472C10.9891 6.9719 11.4272 6.53386 12 6.53386H16.2456V4.00671H12C11.4272 4.00671 10.9891 3.56867 10.9891 2.99585C10.9891 2.42303 11.4272 1.98499 12 1.98499H17.2565C17.8293 1.98499 18.2673 2.42303 18.2673 2.99585V7.54472C18.2673 8.08385 17.8293 8.55559 17.2565 8.55559Z" fill="#F8F8FF"/>
<path d="M12 21.9999H6.74353C6.17071 21.9999 5.73267 21.5618 5.73267 20.989V11.8238C5.73267 11.251 6.17071 10.813 6.74353 10.813H12C12.5728 10.813 13.0109 11.251 13.0109 11.8238C13.0109 12.3967 12.5728 12.8347 12 12.8347H7.75439V20.0118H12C12.5728 20.0118 13.0109 20.4499 13.0109 21.0227C13.0109 21.5955 12.5728 21.9999 12 21.9999Z" fill="#F8F8FF"/>
<path d="M17.2565 21.9999H12C11.4272 21.9999 10.9891 21.5618 10.9891 20.989C10.9891 20.4162 11.4272 19.9781 12 19.9781H16.2456V12.8347H12C11.4272 12.8347 10.9891 12.3967 10.9891 11.8238C10.9891 11.251 11.4272 10.813 12 10.813H17.2565C17.8293 10.813 18.2673 11.251 18.2673 11.8238V21.0227C18.2673 21.5618 17.8293 21.9999 17.2565 21.9999Z" fill="#F8F8FF"/>
</g>
<defs>
<clipPath id="clip0">
<rect x="1.89136" y="1.98499" width="20.2172" height="20.0151" fill="white"/>
</clipPath>
</defs>
</svg>
