<svg width="24" height="24" viewBox="0 0 24 24" fill="none" xmlns="http://www.w3.org/2000/svg">
<g clip-path="url(#clip0)">
<path d="M11.9 14.7294C10.4053 14.7294 9.20233 13.5264 9.20233 12.0318C9.20233 10.5371 10.4053 9.33411 11.9 9.33411C13.3946 9.33411 14.5976 10.5371 14.5976 12.0318C14.5976 13.5264 13.3946 14.7294 11.9 14.7294ZM11.9 11.5214C11.6084 11.5214 11.3896 11.7401 11.3896 12.0318C11.3896 12.3234 11.6084 12.5421 11.9 12.5421C12.1916 12.5421 12.4104 12.3234 12.4104 12.0318C12.4104 11.7401 12.1916 11.5214 11.9 11.5214Z" fill="#F8F8FF"/>
<path d="M18.8264 20.0882C18.5348 20.0882 18.2796 19.9789 18.0609 19.7601C17.6234 19.3227 17.6234 18.63 18.0609 18.229C19.7013 16.5886 20.6127 14.4013 20.6127 12.0682C20.6127 9.73505 19.7013 7.54776 18.0609 5.90729C17.6234 5.46983 17.6234 4.77719 18.0609 4.37619C18.4983 3.93873 19.191 3.93873 19.592 4.37619C21.6699 6.38121 22.8 9.11532 22.8 12.0317C22.8 14.9481 21.6699 17.6822 19.592 19.7601C19.3733 19.9789 19.1181 20.0882 18.8264 20.0882Z" fill="#F8F8FF"/>
<path d="M4.93712 20.0519C4.64549 20.0519 4.3903 19.9425 4.17157 19.7238C2.1301 17.6823 1 14.9482 1 12.0318C1 9.1154 2.1301 6.38128 4.20803 4.33981C4.64549 3.90235 5.33813 3.90235 5.73913 4.33981C6.17659 4.74082 6.17659 5.46991 5.73913 5.87092C4.09866 7.51138 3.18729 9.69868 3.18729 12.0318C3.18729 14.3649 4.09866 16.5522 5.73913 18.1927C6.17659 18.6301 6.17659 19.3228 5.73913 19.7238C5.5204 19.9425 5.22876 20.0519 4.93712 20.0519Z" fill="#F8F8FF"/>
<path d="M15.6913 16.9532C15.3997 16.9532 15.1445 16.8438 14.9257 16.6251C14.4883 16.1877 14.4883 15.495 14.9257 15.094C15.7278 14.292 16.2017 13.1984 16.2017 12.0318C16.2017 10.9017 15.7642 9.80805 14.9257 9.00605C14.4883 8.56859 14.4883 7.87595 14.9257 7.47494C15.3632 7.03749 16.0559 7.03749 16.4569 7.47494C17.6963 8.71441 18.3525 10.3184 18.3525 12.0683C18.3525 13.8181 17.6599 15.4221 16.4569 16.6616C16.2746 16.8438 15.9829 16.9532 15.6913 16.9532Z" fill="#F8F8FF"/>
<path d="M8.07225 16.9167C7.78061 16.9167 7.52542 16.8073 7.30669 16.5886C6.10368 15.3491 5.41104 13.7451 5.41104 12.0318C5.41104 10.2819 6.06723 8.67791 7.30669 7.43845C7.74415 7.00099 8.43679 7.00099 8.8378 7.43845C9.27526 7.8759 9.27526 8.56855 8.8378 8.96955C8.03579 9.77156 7.56188 10.8652 7.56188 11.9953C7.56188 13.1254 7.99934 14.219 8.80134 15.0211C9.2388 15.4585 9.2388 16.1512 8.80134 16.5522C8.61907 16.8438 8.36388 16.9167 8.07225 16.9167Z" fill="#F8F8FF"/>
</g>
<defs>
<clipPath id="clip0">
<rect x="1" y="4.01172" width="21.8" height="16.0766" fill="white"/>
</clipPath>
</defs>
</svg>
