<svg width="24" height="24" viewBox="0 0 24 24" fill="none" xmlns="http://www.w3.org/2000/svg">
<g clip-path="url(#clip0)">
<path d="M10.3595 20.1895C10.047 20.1895 9.77353 20.0723 9.53915 19.838L2.35165 12.6895C1.8829 12.2208 1.8829 11.4786 2.35165 11.0489L9.50009 3.8614C9.85165 3.50984 10.3204 3.43172 10.7892 3.58797C11.2188 3.78328 11.5313 4.21297 11.5313 4.68172V19.0177C11.5313 19.4864 11.2579 19.9161 10.7892 20.1114C10.6329 20.1505 10.4767 20.1895 10.3595 20.1895ZM4.81259 11.8692L9.14853 16.2052V7.49422L4.81259 11.8692Z" fill="#F8F8FF"/>
<path d="M20.8281 20.1894C20.5156 20.1894 20.2422 20.0722 20.0078 19.8378L12.8203 12.6894C12.3516 12.2207 12.3516 11.4785 12.8203 11.0488L20.0078 3.86128C20.3594 3.50972 20.8281 3.43159 21.2969 3.58784C21.7266 3.78316 22.0391 4.21284 22.0391 4.68159V19.0175C22.0391 19.4863 21.7656 19.916 21.2969 20.1113C21.1406 20.1503 20.9844 20.1894 20.8281 20.1894ZM15.3203 11.8691L19.6562 16.205V7.49409L15.3203 11.8691Z" fill="#F8F8FF"/>
</g>
<defs>
<clipPath id="clip0">
<rect x="2" y="3.50977" width="20" height="16.6797" fill="white"/>
</clipPath>
</defs>
</svg>
