<svg width="24" height="24" viewBox="0 0 24 24" fill="none" xmlns="http://www.w3.org/2000/svg">
<g clip-path="url(#clip0)">
<path d="M7.21536 9.77947H2.09683C1.47529 9.77947 1 9.30418 1 8.68264V3.56411C1 2.94258 1.47529 2.46729 2.09683 2.46729C2.71836 2.46729 3.19366 2.94258 3.19366 3.56411V7.58582H7.21536C7.83689 7.58582 8.31219 8.06111 8.31219 8.68264C8.31219 9.30418 7.83689 9.77947 7.21536 9.77947Z" fill="#F8F8FF"/>
<path d="M11.9683 22.8317C6.44758 22.8317 1.80435 18.7003 1.10969 13.2527C1.03657 12.6678 1.4753 12.1193 2.06027 12.0462C2.64525 11.9731 3.19366 12.4118 3.26678 12.9968C3.8152 17.3476 7.54441 20.638 11.9683 20.638C16.7943 20.638 20.7064 16.726 20.7064 11.9C20.7064 7.07394 16.7943 3.16192 11.9683 3.16192C8.45844 3.16192 5.27763 5.24589 3.92488 8.49981C3.70551 9.04823 3.04742 9.30416 2.499 9.08479C1.95059 8.86542 1.69466 8.20733 1.91403 7.65891C3.59583 3.60065 7.58097 0.968262 11.9683 0.968262C18.0008 0.968262 22.9 5.86743 22.9 11.9C22.9 17.9325 18.0008 22.8317 11.9683 22.8317Z" fill="#F8F8FF"/>
</g>
<defs>
<clipPath id="clip0">
<rect x="1" y="0.968262" width="21.9" height="21.8634" fill="white"/>
</clipPath>
</defs>
</svg>
