<svg width="24" height="24" viewBox="0 0 24 24" fill="none" xmlns="http://www.w3.org/2000/svg">
<g clip-path="url(#clip0)">
<path d="M3.2602 22.8364C4.50847 22.8364 5.5204 21.8245 5.5204 20.5762C5.5204 19.328 4.50847 18.316 3.2602 18.316C2.01193 18.316 1 19.328 1 20.5762C1 21.8245 2.01193 22.8364 3.2602 22.8364Z" fill="#F8F8FF"/>
<path d="M21.7063 22.7635C21.0866 22.7635 20.6127 22.2896 20.6127 21.6699C20.6127 11.499 12.3374 3.18729 2.13008 3.18729C1.51035 3.18729 1.03644 2.71338 1.03644 2.09365C1.03644 1.47391 1.51035 1 2.13008 1C13.5405 1 22.8 10.296 22.8 21.6699C22.8 22.2896 22.3261 22.7635 21.7063 22.7635Z" fill="#F8F8FF"/>
<path d="M14.0873 22.8C13.4675 22.8 12.9936 22.3261 12.9936 21.7064C12.9936 15.7278 8.10868 10.8428 2.13008 10.8428C1.51035 10.8428 1.03644 10.3689 1.03644 9.74916C1.03644 9.12943 1.51035 8.65552 2.13008 8.65552C9.34814 8.65552 15.1809 14.5247 15.1809 21.7064C15.1809 22.2896 14.6706 22.8 14.0873 22.8Z" fill="#F8F8FF"/>
</g>
<defs>
<clipPath id="clip0">
<rect x="1" y="1" width="21.8" height="21.8" fill="white"/>
</clipPath>
</defs>
</svg>
