<svg width="24" height="24" viewBox="0 0 24 24" fill="none" xmlns="http://www.w3.org/2000/svg">
<g clip-path="url(#clip0)">
<path d="M21.8763 22.9H2.09683C1.47529 22.9 1 22.4247 1 21.8032V2.09683C1 1.47529 1.47529 1 2.09683 1H14.491C15.1125 1 15.5878 1.47529 15.5878 2.09683C15.5878 2.71836 15.1125 3.19366 14.491 3.19366H3.19366V20.7063H20.7795V9.48214C20.7795 8.8606 21.2548 8.38531 21.8763 8.38531C22.4978 8.38531 22.9731 8.8606 22.9731 9.48214V21.8032C22.9731 22.4247 22.4613 22.9 21.8763 22.9Z" fill="#F8F8FF"/>
<path d="M21.8763 10.579C21.5838 10.579 21.3279 10.4693 21.1085 10.2499L13.7232 2.86461C13.2845 2.42588 13.2845 1.73122 13.7232 1.32905C14.1619 0.890317 14.8566 0.890317 15.2588 1.32905L22.6441 8.6778C23.0828 9.11653 23.0828 9.81119 22.6441 10.2134C22.4247 10.4693 22.1322 10.579 21.8763 10.579Z" fill="#F8F8FF"/>
<path d="M16.9771 21.6935C16.3556 21.6935 15.8803 21.2182 15.8803 20.5966V14.5275H8.09283V20.5966C8.09283 21.2182 7.61753 21.6935 6.996 21.6935C6.37446 21.6935 5.89917 21.2182 5.89917 20.5966V13.4307C5.89917 12.8092 6.37446 12.3339 6.996 12.3339H16.9771C17.5987 12.3339 18.074 12.8092 18.074 13.4307V20.5966C18.074 21.2182 17.5621 21.6935 16.9771 21.6935Z" fill="#F8F8FF"/>
<path d="M16.9771 9.92084H6.996C6.37446 9.92084 5.89917 9.44555 5.89917 8.82402V3.12051C5.89917 2.49897 6.37446 2.02368 6.996 2.02368C7.61753 2.02368 8.09283 2.49897 8.09283 3.12051V7.72719H16.9771C17.5987 7.72719 18.074 8.20248 18.074 8.82402C18.074 9.44555 17.5621 9.92084 16.9771 9.92084Z" fill="#F8F8FF"/>
</g>
<defs>
<clipPath id="clip0">
<rect x="1" y="1" width="21.9731" height="21.9" fill="white"/>
</clipPath>
</defs>
</svg>
