<svg width="24" height="24" viewBox="0 0 24 24" fill="none" xmlns="http://www.w3.org/2000/svg">
<g clip-path="url(#clip0)">
<path d="M5.8133 23C4.82331 23 3.83331 22.6333 3.09997 21.8633C1.63331 20.3967 1.63331 17.94 3.13664 16.4733C4.63997 14.97 7.05997 14.97 8.5633 16.4733C10.0666 17.9767 10.0666 20.3967 8.5633 21.9C7.7933 22.6333 6.8033 23 5.8133 23ZM4.67664 18.0133C4.05331 18.6367 4.05331 19.7 4.67664 20.3233C5.29997 20.9467 6.3633 20.9467 6.98664 20.3233C7.60997 19.7 7.60997 18.6367 6.98664 18.0133C6.3633 17.39 5.29997 17.39 4.67664 18.0133Z" fill="#F8F8FF"/>
<path d="M5.81361 8.6638C4.82361 8.6638 3.83361 8.29714 3.10028 7.52714C1.63361 6.06047 1.63361 3.60381 3.13695 2.13714C4.60361 0.633811 7.06028 0.633811 8.52694 2.13714C10.0303 3.64047 10.0303 6.06047 8.52694 7.5638C7.79361 8.29714 6.80361 8.6638 5.81361 8.6638ZM4.67694 3.67714C4.05361 4.30047 4.05361 5.36381 4.67694 5.98714C5.30028 6.61047 6.36361 6.61047 6.98694 5.98714C7.61027 5.36381 7.61027 4.30047 6.98694 3.67714C6.36361 3.05381 5.30028 3.05381 4.67694 3.67714Z" fill="#F8F8FF"/>
<path d="M7.75668 18.3433C7.46334 18.3433 7.20668 18.2333 6.98668 18.0133C6.54668 17.5733 6.54668 16.8766 6.98668 16.4733L20.5167 2.94328C20.9567 2.50328 21.6533 2.50328 22.0567 2.94328C22.4967 3.38328 22.4967 4.07995 22.0567 4.48328L8.52667 18.0133C8.30667 18.2333 8.05001 18.3433 7.75668 18.3433Z" fill="#F8F8FF"/>
<path d="M21.2866 21.3866C20.9933 21.3866 20.7366 21.2766 20.5167 21.0566L14.32 14.8966C13.88 14.4566 13.88 13.7599 14.32 13.3566C14.76 12.9166 15.4567 12.9166 15.86 13.3566L22.0566 19.5533C22.4966 19.9933 22.4966 20.6899 22.0566 21.0933C21.8733 21.2766 21.58 21.3866 21.2866 21.3866Z" fill="#F8F8FF"/>
<path d="M13 13.0999C12.7067 13.0999 12.45 12.9899 12.23 12.7699L6.98668 7.52661C6.54668 7.08661 6.54668 6.38995 6.98668 5.98662C7.42668 5.54662 8.12334 5.54662 8.52667 5.98662L13.77 11.2299C14.21 11.6699 14.21 12.3666 13.77 12.7699C13.55 12.9899 13.2933 13.0999 13 13.0999Z" fill="#F8F8FF"/>
</g>
<defs>
<clipPath id="clip0">
<rect x="2" y="1" width="20.3866" height="22" fill="white"/>
</clipPath>
</defs>
</svg>
