<svg width="24" height="24" viewBox="0 0 24 24" fill="none" xmlns="http://www.w3.org/2000/svg">
<g clip-path="url(#clip0)">
<path d="M11.89 23C11.45 23 11.0833 22.7433 10.9 22.3766L7.85667 16.1433L1.62333 13.1C1.25667 12.9166 1 12.55 1 12.11C1 11.7066 1.22 11.3033 1.58667 11.12L21.3867 1.10996C21.8267 0.889956 22.3033 0.963289 22.67 1.32996C23 1.65996 23.0733 2.17329 22.89 2.61329L12.88 22.4133C12.6967 22.78 12.2933 23 11.89 23ZM4.55667 12.0733L9.14 14.31C9.36 14.42 9.54333 14.6033 9.65333 14.8233L11.89 19.4066L19.4067 4.59329L4.55667 12.0733Z" fill="#F8F8FF"/>
<path d="M8.66332 16.4366C8.36999 16.4366 8.11332 16.3266 7.89332 16.1066C7.45332 15.6666 7.45332 14.97 7.89332 14.5666L19.3333 3.12663C19.7733 2.68663 20.47 2.68663 20.8733 3.12663C21.3133 3.56663 21.3133 4.2633 20.8733 4.66663L9.43332 16.1066C9.21332 16.3266 8.95666 16.4366 8.66332 16.4366Z" fill="#F8F8FF"/>
</g>
<defs>
<clipPath id="clip0">
<rect x="1" y="1" width="22" height="22" fill="white"/>
</clipPath>
</defs>
</svg>
