<svg width="24" height="24" viewBox="0 0 24 24" fill="none" xmlns="http://www.w3.org/2000/svg">
<path d="M21.9 21.0001H2.1C1.47667 21.0001 1 20.5186 1 19.889V13.3334C1 12.7038 1.47667 12.2223 2.1 12.2223H21.9C22.5233 12.2223 23 12.7038 23 13.3334V19.889C23 20.4815 22.4867 21.0001 21.9 21.0001ZM3.2 18.7778H20.8V14.4445H3.2V18.7778Z" fill="#F8F8FF"/>
<path d="M21.9 10.7778H2.1C1.47667 10.7778 1 10.2963 1 9.66667V3.11111C1 2.48148 1.47667 2 2.1 2H21.9C22.5233 2 23 2.48148 23 3.11111V9.66667C23 10.2593 22.4867 10.7778 21.9 10.7778ZM3.2 8.55556H20.8V4.22222H3.2V8.55556Z" fill="#F8F8FF"/>
</svg>
