<svg width="24" height="24" viewBox="0 0 24 24" fill="none" xmlns="http://www.w3.org/2000/svg">
<path d="M18.6 9.8C18.3067 9.8 18.05 9.69 17.83 9.47L12 3.64L6.16999 9.47C5.72999 9.91 5.03332 9.91 4.62999 9.47C4.18999 9.03 4.18999 8.33333 4.62999 7.93L11.23 1.33C11.67 0.89 12.3667 0.89 12.77 1.33L19.37 7.93C19.81 8.37 19.81 9.06667 19.37 9.47C19.15 9.69 18.8933 9.8 18.6 9.8Z" fill="#F8F8FF"/>
<path d="M21.9 23H2.1C1.47667 23 1 22.5234 1 21.9V12.5867C1 11.9634 1.47667 11.4867 2.1 11.4867C2.72333 11.4867 3.2 11.9634 3.2 12.5867V20.8H20.8V12.5867C20.8 11.9634 21.2767 11.4867 21.9 11.4867C22.5233 11.4867 23 11.9634 23 12.5867V21.9C23 22.5234 22.5233 23 21.9 23Z" fill="#F8F8FF"/>
<path d="M12 17.39C11.3767 17.39 10.9 16.9133 10.9 16.29V3.27334C10.9 2.65001 11.3767 2.17334 12 2.17334C12.6233 2.17334 13.1 2.65001 13.1 3.27334V16.29C13.1 16.9133 12.6233 17.39 12 17.39Z" fill="#F8F8FF"/>
</svg>
