<svg width="24" height="24" viewBox="0 0 24 24" fill="none" xmlns="http://www.w3.org/2000/svg">
<g clip-path="url(#clip0)">
<path d="M12 23C11.8167 23 11.6333 22.9634 11.45 22.8536C0.449998 18.2779 0.999998 5.57572 0.999998 5.4659C1.03667 5.02663 1.33 4.62397 1.73333 4.47755L11.6333 1.07322C11.8533 1.00001 12.11 1.00001 12.3667 1.07322L22.2667 4.47755C22.7067 4.62397 23 5.02663 23 5.4659C23 5.61232 23.55 18.3511 12.5133 22.8902C12.4033 22.9268 12.33 22.9634 12.22 23C12.1467 23 12.0733 23 12 23ZM3.2 6.30783C3.23667 8.83362 4.04333 17.2163 12 20.7305C19.9567 17.2163 20.7633 8.87022 20.8 6.30783L12 3.26956L3.2 6.30783Z" fill="#F8F8FF"/>
</g>
<defs>
<clipPath id="clip0">
<rect x="1" y="1" width="22" height="22" fill="white"/>
</clipPath>
</defs>
</svg>
