<svg width="24" height="24" viewBox="0 0 24 24" fill="none" xmlns="http://www.w3.org/2000/svg">
<g clip-path="url(#clip0)">
<path d="M16.9123 23.1369H6.98763C5.40115 23.1369 4.10983 21.8455 4.10983 20.2591V5.64871C4.10983 5.0215 4.58947 4.54187 5.21668 4.54187H18.7202C19.3474 4.54187 19.827 5.0215 19.827 5.64871V20.2222C19.827 21.8455 18.5357 23.1369 16.9123 23.1369ZM6.32352 6.75556V20.2222C6.32352 20.5911 6.61868 20.8863 6.98763 20.8863H16.9123C17.2813 20.8863 17.5764 20.5911 17.5764 20.2222V6.75556H6.32352Z" fill="#F8F8FF"/>
<path d="M16.5065 6.75562C15.953 6.75562 15.4734 6.34978 15.3996 5.75946L15.2151 3.84093C15.1783 3.43509 14.8462 3.17682 14.4773 3.17682H9.49645C9.09061 3.17682 8.79545 3.47198 8.75856 3.84093L8.53719 5.75946C8.4634 6.34978 7.94687 6.79252 7.31966 6.75562C6.72934 6.68183 6.2866 6.1653 6.3235 5.53809L6.50797 3.61956C6.65555 2.10687 7.94687 0.963135 9.45956 0.963135H14.4404C15.953 0.963135 17.2444 2.10687 17.3919 3.61956L17.5764 5.53809C17.6502 6.12841 17.2075 6.68183 16.5803 6.75562C16.5803 6.75562 16.5434 6.75562 16.5065 6.75562Z" fill="#F8F8FF"/>
<path d="M21.8931 6.75556H2.00681C1.3796 6.75556 0.899963 6.27593 0.899963 5.64871C0.899963 5.0215 1.3796 4.54187 2.00681 4.54187H21.8931C22.5203 4.54187 23 5.0215 23 5.64871C23 6.27593 22.5203 6.75556 21.8931 6.75556Z" fill="#F8F8FF"/>
</g>
<defs>
<clipPath id="clip0">
<rect x="0.899994" y="0.963135" width="22.1" height="22.1738" fill="white"/>
</clipPath>
</defs>
</svg>
