<svg width="24" height="24" viewBox="0 0 24 24" fill="none" xmlns="http://www.w3.org/2000/svg">
<g clip-path="url(#clip0)">
<path d="M4.0067 23.0683H2.10003C1.5867 23.0683 1.1467 22.7017 1.0367 22.225C0.926698 21.7117 1.18336 21.1983 1.62336 20.9783C2.61336 20.5017 5.14336 18.9617 5.9867 17.1283C-2.77664 9.97832 3.27336 1.58165 3.3467 1.47165C3.60336 1.10499 4.04336 0.958319 4.48336 1.06832C4.92336 1.17832 5.25336 1.50832 5.3267 1.94832C5.95003 5.32165 7.45336 7.19165 10.02 7.74165C9.91003 7.33832 9.87336 6.89832 9.87336 6.49499C9.87336 3.52499 12.2934 1.06832 15.3 1.06832C16.8034 1.06832 18.16 1.65499 19.1867 2.71832L21.3134 1.25165C21.79 0.921653 22.4134 1.03165 22.78 1.47165C23.1467 1.91165 23.11 2.57165 22.67 2.97499L20.36 5.17499C20.2134 17.5317 15.1534 23.0683 4.0067 23.0683ZM3.97003 5.10165C3.09003 7.66832 2.76003 11.9583 7.9667 15.8817C8.2967 16.1383 8.48003 16.5783 8.37003 17.0183C8.04003 18.5583 6.94003 19.8417 5.80336 20.8317C14.4567 20.2817 18.0867 15.5517 18.1234 4.99165C18.0867 4.95499 18.0134 4.88165 17.9767 4.80832C17.39 3.85499 16.3634 3.30499 15.2634 3.30499C13.5034 3.30499 12.0367 4.73499 12.0367 6.53165C12.0367 7.19165 12.2567 7.85165 12.66 8.40165C12.9167 8.73165 12.9534 9.17165 12.7334 9.53832C12.55 9.90499 12.1834 10.125 11.7434 10.125C8.00336 10.0883 5.36336 8.40165 3.97003 5.10165Z" fill="#F8F8FF"/>
</g>
<defs>
<clipPath id="clip0">
<rect x="1" y="1.03162" width="22" height="22.0367" fill="white"/>
</clipPath>
</defs>
</svg>
